<svg width="142" height="246" viewBox="0 0 142 246" fill="none" xmlns="http://www.w3.org/2000/svg">
<path d="M97.5398 114.081C121.689 99.2568 129.219 67.7102 114.359 43.6197C99.4983 19.5292 67.8749 12.0174 43.7258 26.8417C19.5767 41.666 12.0467 73.2126 26.907 97.3031C41.7673 121.394 73.3907 128.905 97.5398 114.081Z" fill="#FF725E"/>
<g opacity="0.1">
<path d="M52.1686 22.6401C25.7202 32.8003 12.5463 62.4168 22.7187 88.8009C22.7187 88.8009 22.7187 88.8135 22.7313 88.8135C22.7313 88.8135 56.9785 77.4003 59.867 60.763C62.7555 44.1257 52.1686 22.6401 52.1686 22.6401Z" fill="white"/>
</g>
<path d="M96.2803 93.2424C111.484 78.0757 111.484 53.4856 96.2803 38.319C81.0767 23.1523 56.4269 23.1523 41.2233 38.319C26.0197 53.4856 26.0197 78.0757 41.2233 93.2424C56.4268 108.409 81.0767 108.409 96.2803 93.2424Z" fill="#FF725E"/>
<g opacity="0.2">
<path d="M96.2803 93.2424C111.484 78.0757 111.484 53.4856 96.2803 38.319C81.0767 23.1523 56.4269 23.1523 41.2233 38.319C26.0197 53.4856 26.0197 78.0757 41.2233 93.2424C56.4268 108.409 81.0767 108.409 96.2803 93.2424Z" fill="black"/>
</g>
<path d="M107.59 57.1049C115.238 76.8993 105.367 99.1366 85.5242 106.766C65.6817 114.396 43.3902 104.549 35.742 84.7544C28.0939 64.96 37.9649 42.7226 57.8075 35.093C57.82 35.093 57.8325 35.0805 57.8451 35.0805C77.6751 27.4759 99.9415 37.3355 107.59 57.1049Z" fill="#FF725E"/>
<g opacity="0.2">
<path d="M107.59 57.1049C115.238 76.8993 105.367 99.1366 85.5242 106.766C65.6817 114.396 43.3902 104.549 35.742 84.7544C28.0939 64.96 37.9649 42.7226 57.8075 35.093C57.82 35.093 57.8325 35.0805 57.8451 35.0805C77.6751 27.4759 99.9415 37.3355 107.59 57.1049Z" fill="white"/>
</g>
<path d="M71.8856 67.2401L68.3566 58.082C70.1148 57.6436 71.9232 57.4431 73.7442 57.4807C74.7112 57.5934 75.6531 57.7814 76.5825 58.057V57.7187L76.7332 53.8726V52.9956L74.4349 51.9057L73.7694 52.5571C71.2953 52.2815 68.7961 52.4945 66.41 53.2086L64.4508 48.1598L62.3913 47.4958L62.881 48.7611L60.7335 49.6005L62.7053 54.737C55.8608 58.1447 54.0524 63.5443 55.8357 68.1171C58.2846 74.4312 64.3252 73.9927 69.8636 73.2661L73.3675 82.349C69.9515 83.3387 66.3347 83.3387 62.9187 82.349L62.6424 87.7235C65.8072 88.8636 70.6925 88.6631 75.2513 87.2224L76.7206 91.0309L74.9499 91.745L77.1852 92.2587L80.9277 90.7929L78.9685 85.694C85.8381 82.2237 87.7094 76.8867 85.926 72.2764C83.5399 66.0123 77.4113 66.5385 71.8856 67.2401ZM67.7915 67.7287C64.8528 67.9667 62.5043 67.7287 61.6503 65.5363C60.7963 63.3439 61.6503 61.3644 64.6644 59.6606L67.7915 67.7287ZM77.1099 80.7955L74.008 72.7524C77.0346 72.4768 79.4583 72.7525 80.3123 74.9699C81.0533 76.9368 80.237 79.0165 77.1099 80.7955Z" fill="#FF725E"/>
<g opacity="0.3">
<path d="M71.8856 67.2401L68.3566 58.082C70.1148 57.6436 71.9232 57.4431 73.7442 57.4807C74.7112 57.5934 75.6531 57.7814 76.5825 58.057V57.7187L76.7332 53.8726V52.9956L74.4349 51.9057L73.7694 52.5571C71.2953 52.2815 68.7961 52.4945 66.41 53.2086L64.4508 48.1598L62.3913 47.4958L62.881 48.7611L60.7335 49.6005L62.7053 54.737C55.8608 58.1447 54.0524 63.5443 55.8357 68.1171C58.2846 74.4312 64.3252 73.9927 69.8636 73.2661L73.3675 82.349C69.9515 83.3387 66.3347 83.3387 62.9187 82.349L62.6424 87.7235C65.8072 88.8636 70.6925 88.6631 75.2513 87.2224L76.7206 91.0309L74.9499 91.745L77.1852 92.2587L80.9277 90.7929L78.9685 85.694C85.8381 82.2237 87.7094 76.8867 85.926 72.2764C83.5399 66.0123 77.4113 66.5385 71.8856 67.2401ZM67.7915 67.7287C64.8528 67.9667 62.5043 67.7287 61.6503 65.5363C60.7963 63.3439 61.6503 61.3644 64.6644 59.6606L67.7915 67.7287ZM77.1099 80.7955L74.008 72.7524C77.0346 72.4768 79.4583 72.7525 80.3123 74.9699C81.0533 76.9368 80.237 79.0165 77.1099 80.7955Z" fill="black"/>
</g>
<path d="M76.9844 85.0801L78.9561 90.179L75.2136 91.6448L73.2671 86.596C68.6957 88.0618 63.7979 88.2371 60.6331 87.1096L60.9094 81.7351C64.3253 82.7248 67.9422 82.7248 71.3581 81.7351L67.8543 72.6522C62.316 73.3538 56.2754 73.7923 53.839 67.4781C52.0431 62.8427 53.8389 57.5058 60.6959 54.0981L58.7242 48.9616L62.4667 47.4958L64.4133 52.5446C67.7288 51.4296 71.2703 51.1665 74.7113 51.7679L74.6108 57.0798C71.8354 56.6288 68.9972 56.7541 66.2845 57.4431L69.826 66.6387C75.3644 65.9246 81.4804 65.3859 83.9167 71.7251C85.7503 76.2979 83.8916 81.6223 76.9844 85.0801ZM65.7571 67.0647L62.6425 58.959C59.5908 60.7004 58.8624 62.8678 59.7038 64.8347C60.5327 66.8016 62.8184 67.3152 65.7571 67.0647ZM78.2779 74.3184C77.4114 72.0884 75.0127 71.8128 71.9735 72.0884L75.0755 80.1315C78.2151 78.3525 79.0314 76.2728 78.2779 74.3184Z" fill="#FF725E"/>
<path d="M58.4479 70.0213C57.9079 69.9336 57.4056 69.7081 56.9786 69.3699C55.8985 68.6307 55.0696 67.5658 54.6426 66.3255C54.2156 65.0727 54.2156 63.7322 54.6426 62.4794C54.7557 61.9282 55.0194 61.427 55.3962 61.0136C55.3962 61.0136 55.145 61.5774 54.9064 62.4794C54.5924 63.6821 54.6301 64.9474 55.0194 66.1251C55.4338 67.2902 56.1873 68.305 57.1669 69.0567C57.8953 69.7332 58.4605 69.9587 58.4479 70.0213Z" fill="white"/>
<path d="M61.2108 52.9706C61.1104 52.9706 60.7712 52.3692 60.4573 51.5048C60.1433 50.6404 59.9549 50.039 60.0554 49.9513C60.1559 49.8636 60.4824 50.5527 60.809 51.4171C61.1355 52.2815 61.3113 52.9455 61.2108 52.9706Z" fill="white"/>
<path d="M129.366 118.33H20.6843V140.191H129.366V118.33Z" fill="#FF725E"/>
<path d="M122.384 118.693C122.132 118.693 121.906 123.454 121.906 129.292C121.906 135.13 122.132 139.89 122.384 139.89C122.635 139.89 122.861 135.142 122.861 129.292C122.861 123.441 122.647 118.693 122.384 118.693Z" fill="#263238"/>
<path d="M112.312 118.693C112.048 118.693 111.834 123.454 111.834 129.292C111.834 135.13 112.035 139.89 112.312 139.89C112.575 139.89 112.789 135.142 112.789 129.292C112.789 123.441 112.563 118.693 112.312 118.693Z" fill="#263238"/>
<path d="M102.353 118.693C102.089 118.693 101.875 123.454 101.875 129.292C101.875 135.13 102.076 139.89 102.353 139.89C102.616 139.89 102.83 135.142 102.83 129.292C102.83 123.441 102.616 118.693 102.353 118.693Z" fill="#263238"/>
<path d="M92.444 118.693C92.1802 118.693 91.9667 123.454 91.9667 129.292C91.9667 135.13 92.1677 139.89 92.444 139.89C92.7077 139.89 92.9212 135.142 92.9212 129.292C92.9212 123.441 92.7203 118.693 92.444 118.693Z" fill="#263238"/>
<path d="M82.5352 118.693C82.2715 118.693 82.058 123.454 82.058 129.292C82.058 135.13 82.2589 139.89 82.5352 139.89C82.7989 139.89 83.0124 135.142 83.0124 129.292C83.0124 123.441 82.7989 118.693 82.5352 118.693Z" fill="#263238"/>
<path d="M72.6265 118.693C72.3628 118.693 72.1493 123.454 72.1493 129.292C72.1493 135.13 72.3502 139.89 72.6265 139.89C72.8903 139.89 73.1038 135.142 73.1038 129.292C73.1038 123.441 72.9028 118.693 72.6265 118.693Z" fill="#263238"/>
<path d="M62.7303 118.693C62.4666 118.693 62.2531 123.454 62.2531 129.292C62.2531 135.13 62.4541 139.89 62.7303 139.89C63.0066 139.89 63.2076 135.142 63.2076 129.292C63.2076 123.441 62.9941 118.693 62.7303 118.693Z" fill="#263238"/>
<path d="M52.8216 118.693C52.5579 118.693 52.3445 123.454 52.3445 129.292C52.3445 135.13 52.5453 139.89 52.8216 139.89C53.0854 139.89 53.2989 135.142 53.2989 129.292C53.2989 123.441 53.0854 118.693 52.8216 118.693Z" fill="#263238"/>
<path d="M42.913 118.693C42.6492 118.693 42.4357 123.454 42.4357 129.292C42.4357 135.13 42.6367 139.89 42.913 139.89C43.1767 139.89 43.3902 135.142 43.3902 129.292C43.3902 123.441 43.1767 118.693 42.913 118.693Z" fill="#263238"/>
<path d="M33.0042 118.693C32.7405 118.693 32.527 123.454 32.527 129.292C32.527 135.13 32.7279 139.89 33.0042 139.89C33.2679 139.89 33.4814 135.142 33.4814 129.292C33.4814 123.441 33.2679 118.693 33.0042 118.693Z" fill="#263238"/>
<path d="M23.1081 118.693C22.8444 118.693 22.6309 123.454 22.6309 129.292C22.6309 135.13 22.8318 139.89 23.1081 139.89C23.3718 139.89 23.5853 135.142 23.5853 129.292C23.5853 123.441 23.3593 118.693 23.1081 118.693Z" fill="#263238"/>
<g opacity="0.3">
<path d="M127.621 118.355C92.7077 123.015 57.3302 123.015 22.4299 118.355H127.621Z" fill="black"/>
</g>
<path d="M20.5964 118.392C20.5964 118.655 44.8847 118.868 74.8369 118.868C104.789 118.868 129.09 118.668 129.09 118.392C129.09 118.129 104.802 117.916 74.8369 117.916C44.8721 117.916 20.5964 118.129 20.5964 118.392Z" fill="#263238"/>
<path d="M126.93 139.815H18.2479V161.677H126.93V139.815Z" fill="#FF725E"/>
<path d="M119.947 140.204C119.683 140.204 119.47 144.952 119.47 150.79C119.47 156.628 119.671 161.389 119.947 161.389C120.211 161.389 120.424 156.641 120.424 150.79C120.424 144.927 120.198 140.204 119.947 140.204Z" fill="#263238"/>
<path d="M109.875 140.204C109.612 140.204 109.398 144.952 109.398 150.79C109.398 156.628 109.599 161.389 109.875 161.389C110.139 161.389 110.353 156.641 110.353 150.79C110.34 144.927 110.139 140.204 109.875 140.204Z" fill="#263238"/>
<path d="M99.9037 140.204C99.6526 140.204 99.4265 144.952 99.4265 150.79C99.4265 156.628 99.6526 161.389 99.9037 161.389C100.155 161.389 100.381 156.641 100.381 150.79C100.381 144.927 100.167 140.204 99.9037 140.204Z" fill="#263238"/>
<path d="M89.9951 140.204C89.7313 140.204 89.5178 144.952 89.5178 150.79C89.5178 156.628 89.7188 161.389 89.9951 161.389C90.2588 161.389 90.4723 156.641 90.4723 150.79C90.4723 144.927 90.2588 140.204 89.9951 140.204Z" fill="#263238"/>
<path d="M80.0989 140.204C79.8351 140.204 79.6216 144.952 79.6216 150.79C79.6216 156.628 79.8226 161.389 80.0989 161.389C80.3626 161.389 80.5761 156.641 80.5761 150.79C80.5635 144.927 80.3626 140.204 80.0989 140.204Z" fill="#263238"/>
<path d="M70.1901 140.204C69.9264 140.204 69.7129 144.952 69.7129 150.79C69.7129 156.628 69.9138 161.389 70.1901 161.389C70.4539 161.389 70.6674 156.641 70.6674 150.79C70.6548 144.927 70.4539 140.204 70.1901 140.204Z" fill="#263238"/>
<path d="M60.3443 140.204C60.0806 140.204 59.8671 144.952 59.8671 150.79C59.8671 156.628 60.068 161.389 60.3443 161.389C60.608 161.389 60.8215 156.641 60.8215 150.79C60.809 144.927 60.5452 140.204 60.3443 140.204Z" fill="#263238"/>
<path d="M50.3727 140.204C50.109 140.204 49.8955 144.952 49.8955 150.79C49.8955 156.628 50.0965 161.389 50.3727 161.389C50.6365 161.389 50.85 156.641 50.85 150.79C50.85 144.927 50.6365 140.204 50.3727 140.204Z" fill="#263238"/>
<path d="M40.4766 140.204C40.2129 140.204 39.9994 144.952 39.9994 150.79C39.9994 156.628 40.2003 161.389 40.4766 161.389C40.7404 161.389 40.9539 156.641 40.9539 150.79C40.9413 144.927 40.7404 140.204 40.4766 140.204Z" fill="#263238"/>
<path d="M30.5679 140.204C30.3041 140.204 30.0906 144.952 30.0906 150.79C30.0906 156.628 30.2916 161.389 30.5679 161.389C30.8316 161.389 31.0451 156.641 31.0451 150.79C31.0325 144.927 30.907 140.204 30.5679 140.204Z" fill="#263238"/>
<path d="M20.5964 140.204C20.3326 140.204 20.1191 144.952 20.1191 150.79C20.1191 156.628 20.3201 161.389 20.5964 161.389C20.8601 161.389 21.0736 156.641 21.0736 150.79C21.0736 144.927 20.9229 140.204 20.5964 140.204Z" fill="#263238"/>
<g opacity="0.3">
<path d="M125.197 139.853C90.2839 144.513 54.9064 144.513 19.981 139.853H125.197Z" fill="black"/>
</g>
<path d="M18.2228 139.89C18.2228 140.154 42.5111 140.367 72.4758 140.367C102.441 140.367 126.716 140.166 126.716 139.89C126.716 139.627 102.441 139.414 72.4758 139.414C42.4985 139.427 18.2228 139.715 18.2228 139.89Z" fill="#263238"/>
<path d="M137.266 160.975H28.5836V182.837H137.266V160.975Z" fill="#FF725E"/>
<path d="M130.27 161.351C130.007 161.351 129.793 166.112 129.793 171.95C129.793 177.788 129.994 182.549 130.27 182.549C130.534 182.549 130.748 177.8 130.748 171.95C130.748 166.099 130.522 161.351 130.27 161.351Z" fill="#263238"/>
<path d="M120.186 161.351C119.922 161.351 119.709 166.112 119.709 171.95C119.709 177.788 119.91 182.549 120.186 182.549C120.45 182.549 120.663 177.8 120.663 171.95C120.663 166.099 120.45 161.351 120.186 161.351Z" fill="#263238"/>
<path d="M110.227 161.351C109.976 161.351 109.75 166.112 109.75 171.95C109.75 177.788 109.976 182.549 110.227 182.549C110.478 182.549 110.704 177.8 110.704 171.95C110.704 166.099 110.491 161.351 110.227 161.351Z" fill="#263238"/>
<path d="M100.318 161.351C100.067 161.351 99.8409 166.112 99.8409 171.95C99.8409 177.788 100.067 182.549 100.318 182.549C100.569 182.549 100.795 177.8 100.795 171.95C100.795 166.099 100.582 161.351 100.318 161.351Z" fill="#263238"/>
<path d="M90.4095 161.351C90.1583 161.351 89.9323 166.112 89.9323 171.95C89.9323 177.788 90.1583 182.549 90.4095 182.549C90.6607 182.549 90.8867 177.8 90.8867 171.95C90.8867 166.099 90.6732 161.351 90.4095 161.351Z" fill="#263238"/>
<path d="M80.5008 161.351C80.2496 161.351 80.0236 166.112 80.0236 171.95C80.0236 177.788 80.2496 182.549 80.5008 182.549C80.752 182.549 80.978 177.8 80.978 171.95C80.978 166.099 80.7771 161.351 80.5008 161.351Z" fill="#263238"/>
<path d="M70.6423 161.351C70.3785 161.351 70.1651 166.112 70.1651 171.95C70.1651 177.788 70.366 182.549 70.6423 182.549C70.906 182.549 71.1195 177.8 71.1195 171.95C71.1195 166.099 70.8683 161.351 70.6423 161.351Z" fill="#263238"/>
<path d="M60.6959 161.351C60.4321 161.351 60.2186 166.112 60.2186 171.95C60.2186 177.788 60.4196 182.549 60.6959 182.549C60.9596 182.549 61.1731 177.8 61.1731 171.95C61.1731 166.099 60.9596 161.351 60.6959 161.351Z" fill="#263238"/>
<path d="M50.7872 161.351C50.5234 161.351 50.3099 166.112 50.3099 171.95C50.3099 177.788 50.5109 182.549 50.7872 182.549C51.0509 182.549 51.2644 177.8 51.2644 171.95C51.2644 166.099 51.0509 161.351 50.7872 161.351Z" fill="#263238"/>
<path d="M40.8785 161.351C40.6147 161.351 40.4012 166.112 40.4012 171.95C40.4012 177.788 40.6022 182.549 40.8785 182.549C41.1422 182.549 41.3557 177.8 41.3557 171.95C41.3557 166.099 41.205 161.351 40.8785 161.351Z" fill="#263238"/>
<path d="M30.9823 161.351C30.7186 161.351 30.5051 166.112 30.5051 171.95C30.5051 177.788 30.706 182.549 30.9823 182.549C31.2586 182.549 31.4595 177.8 31.4595 171.95C31.4595 166.099 31.246 161.351 30.9823 161.351Z" fill="#263238"/>
<g opacity="0.3">
<path d="M135.507 161.013C100.594 165.673 65.217 165.673 30.2916 161.013H135.507Z" fill="black"/>
</g>
<path d="M28.5334 161.05C28.5334 161.314 52.8217 161.527 82.7864 161.527C112.751 161.527 137.027 161.326 137.027 161.05C137.027 160.787 112.751 160.574 82.7864 160.574C52.8217 160.587 28.5334 160.8 28.5334 161.05Z" fill="#263238"/>
<path d="M124.531 182.674H15.8492V203.696H124.531V182.674Z" fill="#FF725E"/>
<path d="M117.536 183.05C117.272 183.05 117.059 187.597 117.059 193.235C117.059 198.873 117.26 203.42 117.536 203.42C117.8 203.42 118.013 198.86 118.013 193.235C118.013 187.61 117.75 183.05 117.536 183.05Z" fill="#263238"/>
<path d="M107.439 183.05C107.175 183.05 106.962 187.597 106.962 193.235C106.962 198.873 107.163 203.42 107.439 203.42C107.703 203.42 107.916 198.86 107.916 193.235C107.916 187.61 107.728 183.05 107.439 183.05Z" fill="#263238"/>
<path d="M97.4925 183.05C97.2413 183.05 97.0153 187.597 97.0153 193.235C97.0153 198.873 97.2413 203.42 97.4925 203.42C97.7437 203.42 97.9697 198.86 97.9697 193.235C97.9572 187.61 97.7562 183.05 97.4925 183.05Z" fill="#263238"/>
<path d="M87.5838 183.05C87.3326 183.05 87.1066 187.597 87.1066 193.235C87.1066 198.873 87.3326 203.42 87.5838 203.42C87.835 203.42 88.061 198.86 88.061 193.235C88.061 187.61 87.8475 183.05 87.5838 183.05Z" fill="#263238"/>
<path d="M77.6751 183.05C77.4239 183.05 77.1979 187.597 77.1979 193.235C77.1979 198.873 77.4239 203.42 77.6751 203.42C77.9263 203.42 78.1523 198.86 78.1523 193.235C78.1523 187.61 78.0016 183.05 77.6751 183.05Z" fill="#263238"/>
<path d="M67.7789 183.05C67.5152 183.05 67.3017 187.597 67.3017 193.235C67.3017 198.873 67.5026 203.42 67.7789 203.42C68.0427 203.42 68.2562 198.86 68.2562 193.235C68.2436 187.61 68.0427 183.05 67.7789 183.05Z" fill="#263238"/>
<path d="M57.8702 183.05C57.6064 183.05 57.3929 187.597 57.3929 193.235C57.3929 198.873 57.5939 203.42 57.8702 203.42C58.1339 203.42 58.3474 198.86 58.3474 193.235C58.3348 187.61 58.1339 183.05 57.8702 183.05Z" fill="#263238"/>
<path d="M47.9615 183.05C47.6978 183.05 47.4843 187.597 47.4843 193.235C47.4843 198.873 47.6852 203.42 47.9615 203.42C48.2252 203.42 48.4387 198.86 48.4387 193.235C48.4387 187.61 48.2252 183.05 47.9615 183.05Z" fill="#263238"/>
<path d="M38.0528 183.05C37.7891 183.05 37.5756 187.597 37.5756 193.235C37.5756 198.873 37.7765 203.42 38.0528 203.42C38.3165 203.42 38.53 198.86 38.53 193.235C38.53 187.61 38.2663 183.05 38.0528 183.05Z" fill="#263238"/>
<path d="M28.1567 183.05C27.8929 183.05 27.6794 187.597 27.6794 193.235C27.6794 198.873 27.8804 203.42 28.1567 203.42C28.4204 203.42 28.6339 198.86 28.6339 193.235C28.6213 187.61 28.4204 183.05 28.1567 183.05Z" fill="#263238"/>
<path d="M18.2479 183.05C17.9842 183.05 17.7707 187.597 17.7707 193.235C17.7707 198.873 17.9716 203.42 18.2479 203.42C18.5117 203.42 18.7252 198.86 18.7252 193.235C18.7126 187.61 18.5117 183.05 18.2479 183.05Z" fill="#263238"/>
<g opacity="0.3">
<path d="M122.773 182.712C87.9605 188.675 52.3821 188.675 17.5572 182.712H122.773Z" fill="black"/>
</g>
<path d="M15.799 182.749C15.799 183.012 40.0872 183.225 70.052 183.225C100.017 183.225 124.292 183.025 124.292 182.749C124.292 182.486 100.08 182.298 70.052 182.298C40.0245 182.298 15.799 182.486 15.799 182.749Z" fill="#263238"/>
<path d="M131.501 203.721H22.8193V224.743H131.501V203.721Z" fill="#FF725E"/>
<path d="M124.519 204.072C124.267 204.072 124.041 208.632 124.041 214.282C124.041 219.92 124.267 224.468 124.519 224.468C124.77 224.468 125.008 219.907 125.008 214.282C124.996 208.657 124.782 204.072 124.519 204.072Z" fill="#263238"/>
<path d="M114.447 204.072C114.183 204.072 113.969 208.632 113.969 214.282C113.969 219.92 114.17 224.468 114.447 224.468C114.71 224.468 114.924 219.907 114.924 214.282C114.924 208.657 114.698 204.072 114.447 204.072Z" fill="#263238"/>
<path d="M104.5 204.072C104.236 204.072 104.023 208.632 104.023 214.282C104.023 219.92 104.224 224.468 104.5 224.468C104.776 224.468 104.977 219.907 104.977 214.282C104.965 208.657 104.751 204.072 104.5 204.072Z" fill="#263238"/>
<path d="M94.5789 204.072C94.3152 204.072 94.1017 208.632 94.1017 214.282C94.1017 219.92 94.3026 224.468 94.5789 224.468C94.8426 224.468 95.0561 219.907 95.0561 214.282C95.0436 208.657 94.8426 204.072 94.5789 204.072Z" fill="#263238"/>
<path d="M84.6702 204.072C84.4065 204.072 84.193 208.632 84.193 214.282C84.193 219.92 84.3939 224.468 84.6702 224.468C84.9465 224.468 85.1475 219.907 85.1475 214.282C85.1475 208.657 84.934 204.072 84.6702 204.072Z" fill="#263238"/>
<path d="M74.7615 204.072C74.4977 204.072 74.2842 208.632 74.2842 214.282C74.2842 219.92 74.4852 224.468 74.7615 224.468C75.0252 224.468 75.2387 219.907 75.2387 214.282C75.2387 208.657 75.0629 204.072 74.7615 204.072Z" fill="#263238"/>
<path d="M64.8654 204.072C64.6016 204.072 64.3881 208.632 64.3881 214.282C64.3881 219.92 64.5891 224.468 64.8654 224.468C65.1291 224.468 65.3426 219.907 65.3426 214.282C65.33 208.657 65.1291 204.072 64.8654 204.072Z" fill="#263238"/>
<path d="M54.9566 204.072C54.6929 204.072 54.4794 208.632 54.4794 214.282C54.4794 219.92 54.6803 224.468 54.9566 224.468C55.2203 224.468 55.4338 219.907 55.4338 214.282C55.4213 208.657 55.2203 204.072 54.9566 204.072Z" fill="#263238"/>
<path d="M45.0479 204.072C44.7842 204.072 44.5707 208.632 44.5707 214.282C44.5707 219.92 44.7716 224.468 45.0479 224.468C45.3116 224.468 45.5251 219.907 45.5251 214.282C45.5251 208.657 45.3116 204.072 45.0479 204.072Z" fill="#263238"/>
<path d="M35.1392 204.072C34.8755 204.072 34.662 208.632 34.662 214.282C34.662 219.92 34.8629 224.468 35.1392 224.468C35.4029 224.468 35.6165 219.907 35.6165 214.282C35.6165 208.657 35.4029 204.072 35.1392 204.072Z" fill="#263238"/>
<path d="M25.243 204.072C24.9793 204.072 24.7658 208.632 24.7658 214.282C24.7658 219.92 24.9668 224.468 25.243 224.468C25.5068 224.468 25.7203 219.907 25.7203 214.282C25.7077 208.657 25.4817 204.072 25.243 204.072Z" fill="#263238"/>
<g opacity="0.3">
<path d="M129.755 203.746C95.0184 210.499 59.3018 210.499 24.5648 203.746H129.755Z" fill="black"/>
</g>
<path d="M22.7941 203.796C22.7941 204.059 47.0824 204.272 77.0346 204.272C106.987 204.272 131.288 204.072 131.288 203.796C131.288 203.533 106.999 203.32 77.0346 203.32C47.0699 203.32 22.7941 203.533 22.7941 203.796Z" fill="#263238"/>
<path d="M125.297 224.468H16.6153V245.49H125.297V224.468Z" fill="#FF725E"/>
<path d="M118.315 224.881C118.051 224.881 117.837 229.441 117.837 235.066C117.837 240.692 118.038 245.339 118.315 245.339C118.578 245.339 118.792 240.779 118.792 235.066C118.792 229.354 118.566 224.881 118.315 224.881Z" fill="#263238"/>
<path d="M108.243 224.881C107.979 224.881 107.765 229.441 107.765 235.066C107.765 240.692 107.966 245.339 108.243 245.339C108.506 245.339 108.72 240.779 108.72 235.066C108.707 229.354 108.506 224.881 108.243 224.881Z" fill="#263238"/>
<path d="M98.2711 224.881C98.0199 224.881 97.7939 229.441 97.7939 235.066C97.7939 240.692 98.0199 245.339 98.2711 245.339C98.5223 245.339 98.7483 240.779 98.7483 235.066C98.7483 229.354 98.6102 224.881 98.2711 224.881Z" fill="#263238"/>
<path d="M88.3122 224.881C88.0485 224.881 87.835 229.441 87.835 235.066C87.835 240.692 88.0359 245.339 88.3122 245.339C88.5759 245.339 88.7894 240.779 88.7894 235.066C88.7769 229.354 88.6262 224.881 88.3122 224.881Z" fill="#263238"/>
<path d="M78.4663 224.881C78.2026 224.881 77.9891 229.441 77.9891 235.066C77.9891 240.692 78.19 245.339 78.4663 245.339C78.73 245.339 78.9435 240.779 78.9435 235.066C78.931 229.354 78.73 224.881 78.4663 224.881Z" fill="#263238"/>
<path d="M68.5576 224.881C68.2938 224.881 68.0803 229.441 68.0803 235.066C68.0803 240.692 68.2813 245.339 68.5576 245.339C68.8213 245.339 69.0348 240.779 69.0348 235.066C69.0222 229.354 68.8213 224.881 68.5576 224.881Z" fill="#263238"/>
<path d="M58.6488 224.881C58.3851 224.881 58.1716 229.441 58.1716 235.066C58.1716 240.692 58.3725 245.339 58.6488 245.339C58.9125 245.339 59.126 240.779 59.126 235.066C59.126 229.354 58.8749 224.881 58.6488 224.881Z" fill="#263238"/>
<path d="M48.7401 224.881C48.4764 224.881 48.2629 229.441 48.2629 235.066C48.2629 240.692 48.4638 245.339 48.7401 245.339C49.0038 245.339 49.2173 240.779 49.2173 235.066C49.2173 229.354 49.0038 224.881 48.7401 224.881Z" fill="#263238"/>
<path d="M38.8314 224.881C38.5677 224.881 38.3542 229.441 38.3542 235.066C38.3542 240.692 38.5551 245.339 38.8314 245.339C39.0951 245.339 39.3087 240.779 39.3087 235.066C39.3087 229.354 39.1077 224.881 38.8314 224.881Z" fill="#263238"/>
<path d="M28.9352 224.881C28.6715 224.881 28.458 229.441 28.458 235.066C28.458 240.692 28.659 245.339 28.9352 245.339C29.199 245.339 29.4125 240.779 29.4125 235.066C29.3999 229.354 29.199 224.881 28.9352 224.881Z" fill="#263238"/>
<path d="M19.0265 224.881C18.7628 224.881 18.5493 229.441 18.5493 235.066C18.5493 240.692 18.7503 245.339 19.0265 245.339C19.2903 245.339 19.5038 240.779 19.5038 235.066C19.4912 229.354 19.2903 224.881 19.0265 224.881Z" fill="#263238"/>
<g opacity="0.3">
<path d="M123.627 224.493C88.8145 230.456 53.2361 230.456 18.4112 224.493H123.627Z" fill="black"/>
</g>
<path d="M16.5776 224.543C16.5776 224.793 40.8659 225.019 70.8306 225.019C100.795 225.019 125.071 224.793 125.071 224.543C125.071 224.292 100.783 224.067 70.8306 224.067C40.8784 224.067 16.5776 224.28 16.5776 224.543Z" fill="#263238"/>
<path d="M125.297 245.44C125.297 245.44 125.297 245.327 125.297 245.089C125.297 244.851 125.297 244.462 125.297 244.037C125.297 243.047 125.297 241.681 125.297 239.94C125.297 236.332 125.222 231.133 125.184 224.718V224.48H125.423H131.413L131.162 224.743C131.162 218.592 131.162 211.526 131.162 203.709L131.489 204.034H124.129V203.696C124.129 197.194 124.129 190.141 124.129 182.837V182.486H137.215L136.864 182.837C136.864 175.057 136.864 167.578 136.864 160.562L137.19 160.9H126.566V160.574C126.566 152.97 126.566 146.092 126.566 140.191V139.928H129.504L129.266 140.179C129.266 133.401 129.266 127.964 129.266 124.18C129.266 122.351 129.266 120.91 129.266 119.883C129.266 119.407 129.266 119.056 129.266 118.768C129.253 118.643 129.253 118.518 129.266 118.392C129.278 118.518 129.278 118.643 129.266 118.768C129.266 119.044 129.266 119.42 129.266 119.883C129.266 120.91 129.266 122.339 129.366 124.168C129.366 127.976 129.529 133.401 129.643 140.166V140.417H126.704L126.955 140.166C126.955 146.042 126.955 152.945 127.03 160.549L126.704 160.236H137.002H137.341V160.574C137.341 167.59 137.341 175.069 137.341 182.849V183.2H124.242L124.607 182.849C124.607 190.191 124.607 197.207 124.607 203.709L124.267 203.37H131.627V203.696C131.627 211.476 131.627 218.579 131.627 224.731V224.994H125.373L125.611 224.756C125.611 231.208 125.536 236.369 125.511 239.977C125.511 241.719 125.511 243.084 125.511 244.074C125.511 244.5 125.511 244.851 125.511 245.126C125.448 245.239 125.385 245.339 125.297 245.44Z" fill="#263238"/>
</svg>
