<svg width="345" height="365" viewBox="0 0 345 365" fill="none" xmlns="http://www.w3.org/2000/svg">
<path d="M36.5773 258.961L9.41315 351.206H17.0488L54.4984 258.322L36.5773 258.961Z" fill="#6F4439"/>
<path d="M103.213 258.961L76.0615 350.329H83.6971L121.147 258.322L103.213 258.961Z" fill="#6F4439"/>
<path d="M185.962 258.961L210.589 350.329H202.953L168.04 258.322L185.962 258.961Z" fill="#AE7461"/>
<path d="M106.215 258.961L129.548 350.329H121.925L88.281 258.322L106.215 258.961Z" fill="#AE7461"/>
<path d="M200.68 218.959C200.68 218.959 202.803 191.147 198.558 183.216C194.3 175.274 153.485 159.162 153.485 159.162C153.485 159.162 125.467 115.051 106.742 105.718C88.0172 96.3842 14.8887 97.662 4.26411 112.082C-6.36044 126.502 5.54508 164.249 11.0709 187.15L31.0515 243.138L36.5773 258.974H188.787L200.68 218.959Z" fill="#FF725E"/>
<path d="M11.1085 111.631C11.096 111.631 11.0583 111.731 10.9955 111.919C10.9327 112.107 10.8322 112.408 10.7192 112.783C10.4932 113.548 10.1917 114.7 9.89033 116.204C9.30008 119.198 8.67215 123.633 8.94844 129.17C9.08659 131.939 9.51358 134.946 9.99081 138.165C10.4806 141.385 11.0708 144.83 11.7364 148.463C13.0551 155.73 14.6249 163.735 16.3957 172.217L16.4208 172.342L16.5338 172.405C18.8195 173.545 21.2307 174.772 23.6922 175.963C40.9728 184.381 57.1734 190.771 69.0287 194.968C74.9563 197.072 79.8039 198.638 83.1696 199.691C84.8273 200.192 86.1334 200.593 87.0502 200.868C87.4772 200.994 87.8037 201.081 88.0675 201.157C88.2935 201.219 88.4191 201.244 88.4191 201.244C88.4191 201.232 88.3061 201.194 88.08 201.106C87.8288 201.019 87.5023 200.906 87.0879 200.768C86.1711 200.468 84.8901 200.042 83.245 199.503C79.9044 198.388 75.0819 196.772 69.1794 194.617C57.3617 190.332 41.1989 183.893 23.9434 175.487C21.4819 174.296 19.0707 173.081 16.7975 171.941L16.9357 172.129C15.1649 163.66 13.57 155.655 12.2262 148.401C11.5481 144.78 10.9453 141.335 10.4304 138.115C9.92801 134.895 9.47591 131.901 9.3252 129.17C9.01124 123.683 9.57637 119.26 10.1038 116.266C10.3801 114.763 10.6438 113.623 10.8322 112.846C10.9201 112.483 10.9955 112.195 11.0583 111.969C11.0834 111.731 11.1085 111.631 11.1085 111.631Z" fill="#263238"/>
<path d="M181.039 241.698C180.888 241.672 180.122 245.519 179.331 250.292C178.527 255.065 177.999 258.949 178.15 258.974C178.301 258.999 179.067 255.153 179.858 250.379C180.649 245.606 181.177 241.71 181.039 241.698Z" fill="#263238"/>
<path d="M102.246 258.322C102.397 258.297 100.689 247.673 98.4534 234.594C96.2054 221.515 94.2714 210.929 94.1333 210.954C93.9826 210.979 95.6905 221.602 97.926 234.682C100.161 247.761 102.095 258.347 102.246 258.322Z" fill="#263238"/>
<path d="M285.576 265.927L306.499 292.336C306.499 292.336 340.432 279.996 344.777 284.493L294.895 326.801L260.61 286.987L285.576 265.927Z" fill="#263238"/>
<path d="M289.231 303.261C288.49 304.338 288.741 305.992 289.796 306.768C290.851 307.545 292.534 307.307 293.287 306.242C294.053 305.177 293.802 303.185 292.672 302.521C291.541 301.857 289.582 302.258 289.093 303.474" fill="#E0E0E0"/>
<path d="M294.895 326.813L291.592 322.667L340.645 283.654C340.645 283.654 343.685 282.74 344.765 284.506L294.895 326.813Z" fill="#455A64"/>
<path d="M307.089 291.396C307.29 291.647 306.16 292.787 305.632 294.591C305.054 296.37 305.331 297.949 305.029 298.049C304.766 298.187 303.887 296.433 304.577 294.265C305.23 292.085 306.951 291.133 307.089 291.396Z" fill="white"/>
<path d="M314.159 289.116C314.411 289.304 313.707 290.607 313.758 292.336C313.758 294.065 314.499 295.355 314.247 295.556C314.046 295.794 312.665 294.503 312.652 292.361C312.602 290.206 313.959 288.891 314.159 289.116Z" fill="white"/>
<path d="M322.448 292.85C322.272 293.088 320.903 292.161 320.388 290.306C319.861 288.452 320.564 286.949 320.841 287.062C321.155 287.149 321.016 288.49 321.456 290.006C321.87 291.534 322.674 292.624 322.448 292.85Z" fill="white"/>
<path d="M301.651 285.909C301.739 286.222 300.332 286.824 299.039 288.089C297.72 289.329 297.042 290.695 296.728 290.595C296.439 290.545 296.716 288.753 298.26 287.287C299.805 285.809 301.601 285.621 301.651 285.909Z" fill="white"/>
<path d="M240.102 221.039C240.102 223.432 250.827 333.428 250.827 333.428L214.608 337.613C214.608 337.613 205.591 282.138 204.197 271.915C202.803 261.692 198.106 243.364 198.106 243.364L120.82 235.747C120.82 235.747 158.722 182.853 162.402 182.628C166.094 182.415 240.102 221.039 240.102 221.039Z" fill="#263238"/>
<path d="M302.706 281.825C302.706 281.825 237.841 194.116 234.099 189.518C230.356 184.92 226.036 180.047 212.51 180.047C198.985 180.047 162.402 182.64 162.402 182.64L143.074 173.858L72.8967 184.657C72.8967 184.657 70.3096 217.957 74.9061 225.712C79.5151 233.467 106.855 235.471 112.607 235.759C118.359 236.047 207.512 223.97 207.512 223.97C207.512 223.97 224.981 248.162 233.37 257.458C239.348 264.085 271.259 304.939 271.259 304.939L302.706 281.825Z" fill="#263238"/>
<path d="M270.87 305.253C270.556 304.839 238.896 264.336 233.006 257.796C225.157 249.089 209.182 227.127 207.299 224.521C200.63 225.423 118.221 236.599 112.607 236.273C109.229 236.11 79.4774 234.381 74.4791 225.975C69.845 218.17 72.2814 185.985 72.3944 184.62L72.4195 184.206L142.999 173.344L143.149 173.319L162.502 182.114C164.926 181.939 199.537 179.533 212.523 179.533C226.639 179.533 231.009 184.895 234.513 189.205C238.218 193.752 302.48 280.647 303.133 281.524L303.447 281.938L271.184 305.653L270.87 305.253ZM233.709 189.844C230.344 185.709 226.149 180.56 212.523 180.56C199.173 180.56 162.816 183.129 162.452 183.154L162.326 183.166L143.011 174.384L73.3991 185.096C73.1228 188.929 71.1762 218.37 75.3708 225.436C80.1807 233.517 111.326 235.17 112.657 235.233C118.309 235.521 206.57 223.569 207.462 223.457L207.776 223.419L207.964 223.67C208.14 223.908 225.508 247.937 233.785 257.12C239.386 263.334 268.069 299.991 271.385 304.238L302.003 281.725C297.13 275.147 237.263 194.216 233.709 189.844Z" fill="#455A64"/>
<path d="M214.696 212.344C214.57 212.269 212.699 214.937 210.501 218.308C208.316 221.69 206.646 224.484 206.771 224.572C206.897 224.647 208.768 221.978 210.966 218.608C213.138 215.226 214.821 212.419 214.696 212.344Z" fill="#455A64"/>
<path d="M247.9 311.692L246.054 345.305C246.054 345.305 279.686 358.472 279.95 364.711L214.495 363.483L215.223 310.99L247.9 311.692Z" fill="#263238"/>
<path d="M225.86 342.085C224.592 342.411 223.687 343.814 223.951 345.092C224.215 346.37 225.647 347.297 226.928 346.996C228.209 346.695 229.339 345.042 228.924 343.801C228.51 342.561 226.777 341.559 225.609 342.16" fill="#E0E0E0"/>
<path d="M214.482 363.471L214.758 358.184L277.413 361.341C277.413 361.341 280.302 362.656 279.937 364.698L214.482 363.471Z" fill="#455A64"/>
<path d="M247.122 344.992C247.109 345.305 245.502 345.43 243.907 346.42C242.287 347.372 241.458 348.738 241.157 348.612C240.868 348.55 241.37 346.645 243.329 345.48C245.263 344.278 247.197 344.703 247.122 344.992Z" fill="white"/>
<path d="M253.929 347.948C253.991 348.261 252.597 348.775 251.492 350.103C250.337 351.393 250.035 352.847 249.721 352.834C249.42 352.884 249.232 351.005 250.651 349.376C252.045 347.748 253.929 347.648 253.929 347.948Z" fill="white"/>
<path d="M257.671 356.217C257.382 356.279 256.968 354.676 257.822 352.947C258.663 351.206 260.183 350.554 260.308 350.817C260.484 351.08 259.492 352.007 258.814 353.436C258.111 354.851 257.998 356.192 257.671 356.217Z" fill="white"/>
<path d="M246.682 337.287C246.544 337.575 245.087 337.111 243.279 337.199C241.47 337.249 240.051 337.826 239.888 337.55C239.712 337.312 241.106 336.159 243.229 336.084C245.364 335.996 246.846 337.036 246.682 337.287Z" fill="white"/>
<path d="M115.621 97.9877L113.348 118.96L139.733 171.778C139.733 171.778 155.344 176.965 160.87 182.628L148.223 183.179C130.088 183.968 112.544 190.257 98.0516 201.532C91.81 206.393 86.774 211.655 85.8321 216.428C83.0817 230.51 78.8746 228.33 78.8746 228.33L62.875 207.784L51.6602 185.559L29.1678 98.5014L50.8816 86.6122L55.7543 79.5338L87.8666 83.9939L94.2714 90.2955L115.621 97.9877Z" fill="#455A64"/>
<path d="M168.932 154.251L155.444 148.614L134.258 118.96C134.258 118.96 124.437 99.3533 115.621 97.9752C106.805 96.5971 113.348 118.947 113.348 118.947L126.936 157.434L148.851 172.73L163.959 171.415L173.742 163.109L168.932 154.251Z" fill="#455A64"/>
<path d="M113.511 105.292C113.499 105.304 113.574 105.542 113.737 105.981C113.926 106.469 114.177 107.121 114.491 107.923C115.181 109.664 116.136 112.082 117.316 115.038C119.69 121.052 122.867 129.396 126.359 138.629C129.85 147.862 133.09 156.193 135.551 162.182C136.782 165.176 137.799 167.581 138.54 169.235C138.892 170.024 139.181 170.651 139.394 171.139C139.595 171.565 139.708 171.791 139.721 171.791C139.733 171.778 139.658 171.54 139.495 171.102C139.306 170.613 139.055 169.962 138.741 169.16C138.051 167.418 137.096 165 135.916 162.044C133.542 156.03 130.365 147.687 126.873 138.441C123.382 129.208 120.155 120.877 117.681 114.901C116.45 111.906 115.433 109.501 114.692 107.847C114.34 107.058 114.051 106.432 113.838 105.943C113.637 105.505 113.524 105.279 113.511 105.292Z" fill="#263238"/>
<path d="M87.0503 104.415C87.0879 104.427 87.3768 103.926 87.854 102.986C88.3815 101.959 89.0596 100.619 89.8759 99.015H89.5243C90.2276 100.569 91.0564 102.41 92.149 104.365C93.2416 106.306 94.6356 108.386 96.5445 110.153L97.0469 110.616L96.9967 109.927C96.9967 109.889 96.9966 109.852 96.9841 109.814C96.5948 104.477 95.9668 99.6665 95.3892 96.2088C95.1003 94.4799 94.8491 93.0892 94.6482 92.1246C94.4473 91.1599 94.3217 90.6337 94.284 90.6463C94.2463 90.6588 94.3091 91.1975 94.4473 92.1622C94.598 93.2271 94.7863 94.6051 95.025 96.2714C95.5022 99.7417 96.0673 104.54 96.4566 109.864C96.4566 109.902 96.4566 109.94 96.4692 109.977L96.9213 109.764C95.0626 108.048 93.6937 106.031 92.5886 104.126C91.4834 102.21 90.6295 100.381 89.8885 98.8522L89.7001 98.4763L89.5243 98.8522C88.7708 100.493 88.1429 101.859 87.6656 102.899C87.2386 103.863 87.0126 104.402 87.0503 104.415Z" fill="#263238"/>
<path d="M52.9788 88.2534C52.9663 88.2659 53.0667 88.4163 53.2802 88.6794C53.5314 88.9926 53.8454 89.3684 54.2221 89.8194C55.051 90.7966 56.2692 92.1998 57.8264 93.8785C60.9284 97.2486 65.4118 101.746 70.699 106.344C73.0977 108.436 75.4587 110.353 77.6564 112.069L78.0583 112.383L78.0709 111.881C78.1336 107.923 78.8872 104.515 79.6783 101.984L79.4272 102.084C81.0598 103.024 82.3784 103.776 83.3706 104.339C84.2999 104.853 84.8022 105.129 84.8274 105.091C84.8399 105.066 84.3627 104.74 83.471 104.177C82.504 103.575 81.2105 102.773 79.603 101.784L79.4146 101.671L79.3393 101.884C78.4727 104.427 77.6564 107.872 77.556 111.881L77.9704 111.693C75.7977 109.965 73.4493 108.035 71.0632 105.956C65.7886 101.383 61.2926 96.9354 58.1153 93.6405C56.5203 91.9993 55.2645 90.6337 54.3854 89.7067C53.9835 89.2807 53.6444 88.9299 53.3681 88.6292C53.1295 88.3662 52.9914 88.2534 52.9788 88.2534Z" fill="#263238"/>
<path d="M54.9254 82.29L52.7403 37.7903C51.3588 23.859 58.3288 11.4437 72.3191 10.4414L73.6126 10.4289C86.6861 10.2535 97.6999 20.1257 98.9181 33.1173C100.048 45.1944 101.154 58.5618 101.154 65.0514C101.166 78.4815 87.7159 80.7491 87.7159 80.7491C87.6908 80.7491 88.0801 88.9049 88.2936 92.8387L85.4805 103.087L54.9254 82.29Z" fill="#FFBF9D"/>
<path d="M87.7158 80.7867C87.7158 80.7867 79.2388 81.388 70.1213 75.8381C70.1213 75.8381 74.4665 85.8856 87.8917 84.495L87.7158 80.7867Z" fill="#FF9A6C"/>
<path d="M94.9245 45.3948C94.9747 46.4096 94.1584 47.2865 93.0909 47.3492C92.036 47.4244 91.1318 46.6601 91.0815 45.6454C91.0313 44.6306 91.8476 43.7536 92.9025 43.6784C93.97 43.6158 94.8742 44.38 94.9245 45.3948Z" fill="#263238"/>
<path d="M96.1176 38.6296C95.8789 38.8802 94.4096 37.8278 92.3374 37.8529C90.2653 37.8529 88.7708 38.9428 88.5322 38.6923C88.4192 38.5795 88.6578 38.1285 89.3108 37.6399C89.9513 37.1513 91.0565 36.6752 92.35 36.6627C93.6435 36.6502 94.7236 37.1137 95.364 37.5898C96.0171 38.0659 96.2431 38.5169 96.1176 38.6296Z" fill="#263238"/>
<path d="M76.8778 45.7957C76.928 46.8105 76.1117 47.6874 75.0442 47.7501C73.9893 47.8252 73.0851 47.061 73.0349 46.0463C72.9846 45.0315 73.8009 44.1545 74.8684 44.0919C75.9233 44.0167 76.8275 44.7809 76.8778 45.7957Z" fill="#263238"/>
<path d="M75.848 39.3688C75.6094 39.6193 74.1401 38.567 72.0679 38.592C69.9957 38.592 68.5013 39.682 68.2626 39.4314C68.1496 39.3187 68.3882 38.8677 69.0413 38.3791C69.6818 37.8905 70.7869 37.4144 72.0805 37.4019C73.374 37.3894 74.454 37.8529 75.0945 38.3289C75.735 38.805 75.9611 39.256 75.848 39.3688Z" fill="#263238"/>
<path d="M83.4711 55.1417C83.4585 55.0289 84.7395 54.7909 86.8242 54.4902C87.3517 54.4276 87.854 54.3148 87.9293 53.9515C88.0549 53.5631 87.8163 52.9994 87.5526 52.398C87.0377 51.1327 86.4977 49.8047 85.9325 48.4016C83.6846 42.7138 82.0519 38.0408 82.2906 37.9531C82.5166 37.8654 84.526 42.4006 86.774 48.0884C87.314 49.4915 87.8289 50.832 88.3187 52.1099C88.5322 52.7112 88.8838 53.3877 88.6201 54.177C88.4819 54.5779 88.0926 54.866 87.7661 54.9537C87.427 55.0665 87.1256 55.0665 86.8744 55.0916C84.7897 55.2294 83.4836 55.2544 83.4711 55.1417Z" fill="#263238"/>
<path d="M76.4257 32.9043C76.1494 33.4305 74.14 32.9043 71.6911 32.8918C69.2422 32.8166 67.2077 33.2801 66.9565 32.7289C66.8435 32.4658 67.2454 31.9898 68.1119 31.5513C68.9534 31.1128 70.272 30.762 71.7288 30.7871C73.1982 30.8121 74.4917 31.213 75.3205 31.6891C76.162 32.1526 76.5513 32.6537 76.4257 32.9043Z" fill="#263238"/>
<path d="M96.1426 32.5535C95.7282 33.0296 94.0328 32.5911 91.9983 32.6287C89.9764 32.6036 88.2684 33.0421 87.854 32.566C87.6782 32.328 87.9293 31.8519 88.6703 31.3884C89.3987 30.9249 90.6169 30.524 92.0109 30.524C93.4049 30.524 94.6231 30.9123 95.3389 31.3759C96.0799 31.8519 96.3185 32.328 96.1426 32.5535Z" fill="#263238"/>
<path d="M53.9459 47.274C53.7198 47.1738 44.6525 44.6682 45.0669 53.8387C45.4814 63.0218 54.6366 60.7167 54.6366 60.441C54.6491 60.1905 53.9459 47.274 53.9459 47.274Z" fill="#FFBF9D"/>
<path d="M51.6727 57.0961C51.6351 57.071 51.522 57.2088 51.2583 57.3466C50.9946 57.4844 50.555 57.5846 50.0652 57.4218C49.0731 57.1086 48.194 55.6052 48.0684 53.9515C48.0056 53.1121 48.1438 52.3103 48.4201 51.6463C48.6712 50.9573 49.0857 50.4687 49.5754 50.3685C50.0527 50.2306 50.4169 50.5063 50.5425 50.7694C50.6806 51.0199 50.6304 51.2079 50.6806 51.2204C50.7057 51.2454 50.869 51.0575 50.7811 50.6817C50.7308 50.5063 50.6178 50.2933 50.3918 50.1179C50.1657 49.9425 49.8392 49.8673 49.5001 49.9174C48.7968 49.9926 48.1815 50.6817 47.8926 51.4208C47.5661 52.16 47.3777 53.062 47.4531 54.0016C47.5912 55.8432 48.621 57.5345 49.9648 57.8603C50.6178 57.9981 51.1453 57.7851 51.4216 57.5471C51.6727 57.3216 51.7104 57.1086 51.6727 57.0961Z" fill="#FF9A6C"/>
<path d="M116.814 19.5869C116.638 19.0482 116.236 18.6223 115.734 18.3592C114.654 17.7829 113.436 17.9207 112.268 17.9458C109.342 18.0209 106.416 17.407 103.753 16.1918C104.645 15.6907 105.461 15.1019 106.152 14.3502C107.571 12.8092 108.337 10.5041 107.571 8.54969C107.433 8.18637 107.194 7.79799 106.817 7.69777C106.215 7.5349 105.712 8.14878 105.323 8.62485C104.017 10.2159 102.786 10.9175 100.727 10.8047C99.4456 10.7296 98.2148 10.5041 97.185 9.92776C97.1473 9.89018 97.1097 9.84008 97.0594 9.8025C96.5571 9.32643 96.0673 8.87541 95.5901 8.44946C91.9858 5.1671 88.8964 2.92456 85.7818 1.82209C81.2105 0.205962 73.6628 -0.194939 69.0287 1.23326C64.3946 2.66147 60.3507 6.63288 59.9112 11.4437C57.186 9.33895 53.2426 9.52686 50.1029 10.9425L50.015 10.93C46.5112 12.3457 44.64 16.1918 43.7483 19.8626C43.6981 20.063 43.6604 20.2634 43.6101 20.4639C42.4924 22.4183 40.9226 24.1221 39.0137 25.3373C38.6746 25.5503 38.2979 25.8134 38.2728 26.2143C38.2476 26.6027 38.5993 26.9159 38.9258 27.1288C39.8049 27.7051 40.8221 28.0559 41.8645 28.2062C41.5757 29.0832 41.224 29.9351 40.7845 30.7495C40.4077 31.451 39.9682 32.2779 40.3449 32.9669C40.6463 33.5056 41.3496 33.6936 41.9524 33.5808C42.5552 33.4681 43.0701 33.1047 43.585 32.7665C43.2334 33.7311 42.8692 34.6958 42.5176 35.6605C43.8111 35.8233 45.1423 35.673 46.3856 35.2345C47.2898 38.592 48.1312 44.8436 49.0982 47.1112C51.5472 47.0485 52.1249 46.7604 53.3807 47.1112C55.0008 47.5747 54.511 50.406 56.5455 49.5165C57.5878 49.0655 59.0321 45.0064 59.346 43.9165C61.3805 36.7003 61.8326 29.0331 60.6647 21.629C62.0712 20.0003 63.8043 18.6348 65.7132 17.6451L65.5625 17.7954C69.2673 16.3296 73.4744 14.8638 77.1164 16.48C79.9421 17.7328 81.7003 20.5265 83.8604 22.719C87.967 26.8908 92.5132 29.008 98.3781 29.008C99.0814 33.0421 99.5209 39.6569 99.8851 43.4279L102.799 35.7231V35.7482C103.037 35.2972 103.238 34.8336 103.427 34.3826L103.489 34.2448V34.2323C103.791 33.4931 104.08 32.7665 104.469 32.0399C104.482 32.0524 104.494 32.0649 104.507 32.0649C106.642 33.7813 109.543 30.8873 107.835 28.7575C107.496 28.3315 107.094 27.9557 106.642 27.655C107.621 28.4944 109.04 28.8577 110.246 28.4192C111.464 27.9933 112.368 26.7029 112.205 25.425C112.092 24.5606 111.439 23.7964 110.623 23.4832C112.293 23.5458 113.963 23.1073 115.382 22.2178C116.299 21.6916 117.191 20.752 116.814 19.5869Z" fill="#263238"/>
<path d="M64.2188 12.8092C64.2439 12.8468 63.6662 13.1851 62.9252 14.0996C62.1843 15.0016 61.3805 16.5677 61.054 18.6473C60.8908 19.6872 60.8028 20.8397 60.8531 22.08C60.9033 23.3203 61.054 24.6358 61.2173 26.0264C61.368 27.417 61.5312 28.8953 61.5061 30.4237C61.4936 31.1879 61.4308 31.9772 61.3052 32.7665C61.167 33.5432 61.0038 34.3826 60.4512 35.0591C60.0117 35.6104 59.2456 35.886 58.58 35.7732C57.9018 35.6855 57.2864 35.3473 56.8343 34.8837C55.9301 33.9065 55.6538 32.6412 55.3901 31.5262L55.6789 31.5513C55.2645 32.5786 54.825 33.6059 54.1594 34.4327C53.5063 35.2721 52.5644 35.8359 51.5974 35.9737C51.1202 36.0363 50.6178 35.9862 50.2034 35.7858C49.7764 35.5978 49.4499 35.2596 49.2238 34.8963C49.0103 34.533 48.8848 34.1195 48.8848 33.7186C48.8848 33.3177 49.0355 32.9293 49.2741 32.6537L49.4248 32.779C48.4327 34.0068 47.3652 34.6833 46.6242 35.0717C46.2475 35.2596 45.9461 35.3849 45.7451 35.46C45.5442 35.5352 45.4312 35.5602 45.4312 35.5477C45.4312 35.5352 45.5316 35.4976 45.7326 35.4099C45.9335 35.3222 46.2223 35.1844 46.5865 34.984C47.3024 34.5831 48.3447 33.8815 49.2866 32.6663L49.4373 32.7915C49.0103 33.2927 49.0103 34.1321 49.4373 34.796C49.6508 35.1218 49.9397 35.4224 50.329 35.5853C50.7058 35.7482 51.1579 35.7983 51.5974 35.7356C52.4891 35.6104 53.3556 35.0717 53.971 34.2824C54.5989 33.4931 55.0133 32.4909 55.4278 31.4636L55.6036 31.0251L55.7166 31.4886C55.9804 32.6036 56.2692 33.8188 57.0981 34.6958C57.5125 35.1218 58.0776 35.4099 58.6679 35.4976C59.2581 35.5853 59.8735 35.3598 60.2628 34.8837C60.7401 34.2949 60.9159 33.4931 61.054 32.7414C61.1796 31.9772 61.2424 31.213 61.255 30.4488C61.2801 28.9329 61.1294 27.4796 60.9787 26.089C60.828 24.6984 60.6898 23.3704 60.6521 22.1176C60.6145 20.8648 60.7024 19.6872 60.8908 18.6473C61.2424 16.5301 62.1089 14.9515 62.8876 14.062C63.616 13.1224 64.2188 12.8092 64.2188 12.8092Z" fill="#455A64"/>
<path d="M106.441 24.097C106.441 24.097 106.403 24.1346 106.34 24.1973C106.252 24.2724 106.139 24.3476 106.014 24.4604C105.876 24.5731 105.687 24.7109 105.461 24.8487C105.235 24.9865 104.971 25.1619 104.657 25.3123C103.427 25.9637 101.455 26.6277 98.9307 26.5901C96.4441 26.5526 93.4175 25.8134 90.6671 23.9467C87.8917 22.1301 85.4051 19.3865 83.3329 16.2169C82.278 14.6258 81.4115 12.9972 80.4696 11.4938C79.5277 9.99041 78.4979 8.61232 77.2797 7.5349C76.0741 6.45748 74.6926 5.68075 73.2986 5.35502C72.5954 5.17963 71.9046 5.16709 71.239 5.20467C70.5734 5.26731 69.958 5.43019 69.3804 5.64317C68.2375 6.08165 67.3207 6.75817 66.6426 7.44721C65.9519 8.13626 65.5123 8.86288 65.2109 9.47676C64.6458 10.7421 64.6458 11.5314 64.6081 11.5188C64.6081 11.5188 64.6081 11.4687 64.6081 11.381C64.6207 11.2683 64.6332 11.1305 64.6583 10.9676C64.7086 10.6043 64.8467 10.0781 65.1104 9.42666C65.3993 8.78772 65.8388 8.04855 66.5296 7.32193C67.2203 6.60782 68.1371 5.89373 69.305 5.43019C69.8953 5.20468 70.5357 5.02928 71.2265 4.95412C71.9172 4.904 72.6456 4.91653 73.3614 5.09193C74.8182 5.41766 76.2373 6.20693 77.4806 7.3094C78.7365 8.39935 79.7789 9.81502 80.7333 11.3184C81.6878 12.8343 82.5669 14.463 83.5967 16.029C85.6563 19.1735 88.1052 21.8921 90.8178 23.6836C93.5179 25.5252 96.4692 26.2895 98.9181 26.3521C101.392 26.4147 103.351 25.7883 104.582 25.187C105.838 24.5856 106.416 24.0595 106.441 24.097Z" fill="#455A64"/>
<path d="M107.42 18.1462C107.433 18.1587 107.27 18.284 106.956 18.497C106.642 18.7099 106.164 18.9856 105.562 19.2862C104.946 19.5869 104.193 19.8751 103.326 20.1256C102.46 20.3637 101.48 20.5516 100.45 20.6268C99.4079 20.7019 98.4158 20.6518 97.5241 20.5516C96.6325 20.4263 95.8413 20.2634 95.1882 20.0505C94.5352 19.85 94.0203 19.6496 93.6812 19.4867C93.3421 19.3238 93.1537 19.2236 93.1663 19.1986C93.1914 19.1484 93.9449 19.4992 95.2385 19.8375C95.8789 20.0129 96.6701 20.1632 97.5492 20.2634C98.4283 20.3511 99.3953 20.3762 100.413 20.3136C101.43 20.2259 102.384 20.0505 103.238 19.8375C104.092 19.612 104.846 19.3489 105.461 19.0733C106.679 18.5596 107.383 18.0961 107.42 18.1462Z" fill="#455A64"/>
<path d="M83.6218 61.4182C83.4962 61.0925 81.3738 62.0446 79.0379 60.9171C76.702 59.7896 75.9234 57.4218 75.6094 57.5345C75.4587 57.5596 75.421 58.2236 75.8354 59.1882C76.2248 60.1404 77.1415 61.3681 78.5732 62.0572C80.0049 62.7462 81.4491 62.671 82.3533 62.3453C83.2827 62.0321 83.6971 61.5561 83.6218 61.4182Z" fill="#263238"/>
<path d="M102.246 258.322C102.246 257.671 95.0375 210.954 92.2494 204.99C90.0391 200.267 72.3441 196.584 53.3932 188.954C32.9855 180.736 9.3252 180.172 9.3252 180.172L39.2774 249.139L102.246 258.322Z" fill="#FF725E"/>
<path d="M84.438 163.898L111.652 170.049C111.652 170.049 118.359 169.611 119.338 169.636C120.318 169.661 132.412 172.68 134.685 173.695C136.958 174.71 139.62 175.324 139.62 175.324L122.478 178.255L107.659 186.023L105.16 185.496L81.424 186.511L84.438 163.898Z" fill="#FFBF9D"/>
<path d="M141.228 179.157C140.801 179.846 139.997 180.26 139.193 180.122C139.03 180.097 138.867 180.047 138.704 179.972C137.586 179.508 137.887 177.178 137.887 177.178L132.449 175.812C132.449 175.812 121.348 182.177 117.681 183.78C103.263 190.082 103.627 181.513 103.627 181.513L111.715 170.563L122.641 162.269C122.641 162.269 121.976 162.758 122.817 161.104C123.658 159.451 126.798 160.365 126.798 160.365C127.363 159.563 129.473 159.438 129.473 159.438L138.289 161.217C140.11 161.58 141.655 162.745 142.509 164.387L145.762 170.651C145.762 170.651 147.382 175.098 146.98 176.063C146.364 177.529 144.807 177.053 144.807 177.053C144.807 177.053 144.129 179.834 143.375 179.859C142.634 179.896 141.228 179.157 141.228 179.157Z" fill="#FFBF9D"/>
<path d="M123.005 169.122C123.005 169.222 124.198 169.21 126.095 169.448C127.979 169.699 130.578 170.262 133.241 171.415C134.572 171.991 135.79 172.655 136.845 173.332C137.875 174.033 138.955 174.622 139.231 175.424C139.369 175.825 139.256 176.201 139.043 176.476C138.829 176.752 138.553 176.915 138.327 176.99C137.837 177.14 137.548 176.99 137.536 177.04C137.511 177.053 137.787 177.303 138.377 177.203C138.666 177.153 139.005 176.99 139.281 176.689C139.57 176.401 139.771 175.85 139.608 175.324C139.457 174.785 139.055 174.346 138.603 173.983C138.151 173.62 137.661 173.257 137.121 172.906C136.054 172.192 134.81 171.503 133.454 170.901C130.729 169.711 128.054 169.21 126.12 169.047C124.198 168.909 123.005 169.06 123.005 169.122Z" fill="#FF9A6C"/>
<path d="M121.9 174.735C121.9 174.898 125.53 175.061 129.963 175.699C134.396 176.326 137.925 177.178 137.975 177.015C138 176.94 137.134 176.639 135.702 176.251C134.27 175.875 132.274 175.449 130.038 175.123C127.803 174.81 125.768 174.66 124.286 174.622C122.817 174.597 121.9 174.66 121.9 174.735Z" fill="#FF9A6C"/>
<path d="M141.203 178.919C141.228 178.919 141.303 178.593 141.391 177.98C141.479 177.378 141.592 176.489 141.617 175.386C141.63 174.835 141.617 174.221 141.517 173.57C141.429 172.906 141.178 172.204 140.801 171.565C140.098 170.287 139.093 168.934 137.762 167.869C136.431 166.817 135.087 165.915 133.693 165.364C132.311 164.813 130.993 164.6 129.9 164.449C128.807 164.311 127.916 164.261 127.3 164.236C126.685 164.211 126.346 164.211 126.346 164.249C126.333 164.337 127.69 164.499 129.85 164.838C130.917 165.026 132.198 165.289 133.504 165.84C134.798 166.379 136.129 167.281 137.41 168.308C138.704 169.335 139.645 170.576 140.361 171.816C141.127 173.006 141.178 174.309 141.215 175.386C141.24 177.554 141.077 178.919 141.203 178.919Z" fill="#FF9A6C"/>
<path d="M129.712 161.718C129.699 161.806 131.03 161.956 133.14 162.37C135.162 162.858 138.427 163.284 140.047 166.253C141.856 168.984 143.363 171.553 143.941 173.595C144.568 175.637 144.38 176.99 144.506 176.99C144.531 176.99 144.619 176.664 144.644 176.05C144.669 175.436 144.619 174.547 144.342 173.482C143.84 171.327 142.346 168.671 140.525 165.928C140.06 165.239 139.558 164.575 138.942 164.036C138.339 163.485 137.611 163.134 136.933 162.871C135.564 162.357 134.283 162.132 133.215 161.956C131.068 161.655 129.724 161.655 129.712 161.718Z" fill="#FF9A6C"/>
<path d="M124.186 180.924C124.198 180.936 124.387 180.811 124.751 180.56C125.153 180.285 125.68 179.934 126.346 179.495C127.753 178.593 129.825 177.316 132.537 175.975L132.412 175.988C134.032 176.401 135.865 176.877 137.837 177.391L137.674 177.14C137.624 177.591 137.611 178.03 137.661 178.493C137.711 178.944 137.812 179.445 138.176 179.871C138.365 180.084 138.641 180.222 138.879 180.272C139.118 180.36 139.382 180.398 139.645 180.385C140.173 180.36 140.7 180.122 141.077 179.746C141.178 179.658 141.266 179.546 141.341 179.445L141.404 179.358L141.429 179.32L141.441 179.295C141.517 179.27 140.801 179.47 141.102 179.383H141.115L141.278 179.47C141.504 179.583 141.73 179.683 141.969 179.784C142.207 179.884 142.446 179.972 142.71 180.034C142.835 180.072 142.974 180.097 143.112 180.109C143.25 180.122 143.401 180.147 143.627 180.059C143.953 179.859 144.091 179.608 144.229 179.383C144.355 179.145 144.468 178.894 144.568 178.656C144.769 178.155 144.92 177.654 145.058 177.128L144.719 177.328C145.422 177.516 146.276 177.416 146.829 176.802C147.08 176.514 147.294 176.163 147.306 175.725C147.319 175.336 147.269 174.998 147.206 174.647C146.929 173.269 146.502 171.929 146.025 170.563V170.55L146.013 170.538C145.46 169.473 144.87 168.346 144.28 167.193C143.915 166.479 143.539 165.777 143.174 165.076C142.81 164.399 142.484 163.635 141.944 163.009C141.416 162.382 140.776 161.869 140.06 161.518C139.357 161.142 138.54 160.992 137.824 160.854C134.898 160.277 132.123 159.714 129.511 159.2L129.473 159.187H129.448C128.92 159.225 128.431 159.313 127.941 159.451C127.464 159.601 126.961 159.764 126.585 160.24L126.899 160.165C125.994 159.701 124.902 159.601 124.023 160.077C123.144 160.553 122.691 161.392 122.415 162.207L122.49 162.094C119.351 164.462 116.789 166.391 114.955 167.769C114.114 168.421 113.436 168.947 112.921 169.335C112.456 169.699 112.23 169.899 112.243 169.912C112.255 169.924 112.519 169.761 112.996 169.423C113.524 169.047 114.227 168.558 115.093 167.945C116.952 166.604 119.552 164.725 122.729 162.42L122.779 162.382L122.804 162.307C123.056 161.593 123.495 160.829 124.224 160.465C124.927 160.077 125.881 160.165 126.647 160.566L126.836 160.666L126.961 160.503C127.175 160.227 127.614 160.039 128.054 159.914C128.493 159.789 128.983 159.714 129.46 159.676H129.398C131.997 160.202 134.785 160.779 137.699 161.38C138.44 161.53 139.143 161.656 139.784 162.006C140.424 162.332 141.014 162.796 141.492 163.359C141.969 163.911 142.27 164.625 142.647 165.326C143.011 166.028 143.375 166.729 143.752 167.443C144.342 168.584 144.933 169.724 145.485 170.788L145.473 170.751C145.937 172.079 146.377 173.432 146.641 174.747C146.703 175.073 146.754 175.411 146.741 175.699C146.754 175.95 146.603 176.213 146.415 176.426C146.05 176.852 145.397 176.94 144.87 176.802L144.594 176.739L144.531 177.002C144.405 177.504 144.254 177.992 144.079 178.468C143.903 178.907 143.664 179.445 143.4 179.608C143.388 179.608 143.287 179.633 143.174 179.608C143.061 179.596 142.948 179.571 142.835 179.546C142.609 179.483 142.383 179.408 142.157 179.32C141.931 179.232 141.718 179.132 141.504 179.032L141.341 178.957H141.328C141.63 178.869 140.914 179.07 140.989 179.045L140.977 179.057L140.952 179.095L140.901 179.157C140.839 179.245 140.776 179.32 140.688 179.395C140.386 179.696 139.985 179.884 139.57 179.909C139.369 179.921 139.168 179.896 138.967 179.821C138.754 179.771 138.603 179.696 138.478 179.571C138 178.982 138.013 178.005 138.076 177.228L138.088 177.027L137.9 176.977C135.916 176.489 134.082 176.05 132.449 175.649L132.374 175.637L132.311 175.662C129.586 177.065 127.539 178.393 126.17 179.358C125.492 179.846 124.965 180.235 124.625 180.51C124.349 180.761 124.173 180.911 124.186 180.924Z" fill="#FF9A6C"/>
<path d="M91.2197 164.712L55.1891 157.496L49.2238 129.245L36.8285 94.5926C28.3012 98.1005 20.3767 105.642 20.8916 115.427C21.6577 129.934 25.0737 161.067 25.8648 169.085C26.8946 179.546 30.5869 186.824 45.8958 188.954C61.2675 191.097 87.1884 190.658 87.1884 190.658C87.1884 190.658 89.7377 193.452 92.9653 191.948C97.1222 190.007 96.7705 186.073 96.7705 186.073L97.0971 166.366C97.0845 166.379 93.6435 162.294 91.2197 164.712Z" fill="#455A64"/>
<path d="M38.6369 96.9604C38.5741 97.0231 39.7044 98.1005 41.224 100.067C41.9775 101.057 42.8315 102.272 43.6729 103.688C44.5017 105.104 45.3306 106.72 46.0716 108.461C47.5284 111.969 48.3321 115.339 48.7214 117.795C49.1359 120.25 49.2112 121.804 49.3242 121.791C49.3619 121.791 49.3619 121.403 49.3493 120.701C49.3493 120 49.2614 118.985 49.1107 117.732C48.8093 115.239 48.0558 111.806 46.5739 108.248C45.8204 106.482 44.979 104.853 44.0999 103.425C43.2208 102.009 42.3166 100.807 41.5254 99.8294C40.7091 98.8647 39.9932 98.1381 39.4909 97.6495C38.9634 97.1734 38.662 96.9354 38.6369 96.9604Z" fill="#263238"/>
<path d="M42.2161 170.125C42.3166 170.15 42.5426 169.097 43.2333 167.531C43.9241 165.965 45.1799 163.923 47.0763 162.132C48.9726 160.34 51.0825 159.187 52.69 158.586C54.2974 157.972 55.3649 157.809 55.3398 157.709C55.3398 157.672 55.0635 157.684 54.5737 157.747C54.084 157.797 53.3932 157.96 52.5518 158.223C51.7104 158.486 50.7434 158.912 49.7261 159.476C48.7214 160.064 47.6791 160.816 46.687 161.731C45.7199 162.658 44.9162 163.673 44.2631 164.637C43.6352 165.614 43.158 166.554 42.8566 167.381C42.5426 168.195 42.3542 168.884 42.2789 169.373C42.2035 169.849 42.1784 170.125 42.2161 170.125Z" fill="#263238"/>
<path d="M111.05 188.002C111.251 189.092 112.268 189.831 113.373 189.681L156.537 183.868L193.509 180.21L194.074 177.002L158.848 179.157L112.808 185.559C111.627 185.735 110.836 186.837 111.05 188.002Z" fill="#E0E0E0"/>
<path d="M183.06 121.891L158.044 178.581C157.039 180.836 158.508 183.505 160.656 183.342L204.686 179.107C205.666 179.032 206.545 178.355 206.997 177.316L232.039 121.102C232.541 119.95 231.851 118.584 230.758 118.559L185.597 120.112C184.53 120.087 183.55 120.776 183.06 121.891Z" fill="#E0E0E0"/>
<path d="M183.06 121.891C183.06 121.891 183.111 121.691 183.324 121.353C183.538 121.027 183.914 120.526 184.643 120.225C185.007 120.062 185.459 120.037 185.924 120.025C186.401 120 186.916 119.975 187.469 119.962C188.586 119.912 189.88 119.862 191.324 119.799C197.151 119.574 205.54 119.248 215.889 118.847C218.476 118.747 221.201 118.647 224.027 118.546C225.446 118.496 226.89 118.446 228.359 118.383C229.1 118.358 229.841 118.333 230.582 118.308C230.959 118.258 231.486 118.409 231.8 118.722C232.127 119.022 232.34 119.423 232.428 119.837C232.516 120.263 232.491 120.701 232.328 121.115L231.863 122.192C231.549 122.894 231.235 123.608 230.909 124.334C230.268 125.775 229.628 127.228 228.962 128.719C227.643 131.688 226.287 134.733 224.906 137.865C222.13 144.116 219.204 150.693 216.177 157.496C214.658 160.904 213.126 164.362 211.556 167.882C210.777 169.636 209.986 171.415 209.195 173.194C208.793 174.083 208.404 174.973 208.002 175.875L207.399 177.228C207.211 177.679 206.947 178.193 206.558 178.568C206.181 178.957 205.678 179.257 205.138 179.395C204.561 179.508 204.134 179.508 203.619 179.571C202.639 179.671 201.66 179.759 200.693 179.846C198.746 180.034 196.812 180.222 194.891 180.398C191.048 180.761 187.268 181.124 183.55 181.488C176.116 182.202 168.945 182.878 162.125 183.53L160.844 183.655C160.417 183.692 159.89 183.68 159.463 183.492C158.571 183.129 157.943 182.352 157.655 181.513C157.341 180.661 157.341 179.721 157.617 178.882C157.931 178.055 158.27 177.366 158.596 176.602C159.915 173.632 161.183 170.763 162.427 167.97C164.901 162.407 167.199 157.221 169.296 152.485C173.503 143.051 176.919 135.409 179.293 130.085C180.473 127.466 181.403 125.424 182.043 124.009C182.357 123.332 182.596 122.818 182.772 122.43C182.96 122.067 183.06 121.891 183.06 121.891C183.06 121.891 182.998 122.079 182.847 122.443C182.684 122.831 182.458 123.357 182.181 124.046C181.566 125.474 180.687 127.529 179.544 130.172C177.221 135.509 173.868 143.177 169.736 152.648C167.651 157.396 165.378 162.583 162.929 168.158C161.711 170.951 160.442 173.833 159.136 176.802C158.822 177.541 158.446 178.305 158.182 179.032C157.943 179.746 157.956 180.56 158.22 181.275C158.471 182.001 159.011 182.628 159.702 182.903C160.053 183.053 160.405 183.066 160.819 183.028L162.1 182.903C168.932 182.239 176.103 181.55 183.525 180.823C187.242 180.46 191.023 180.097 194.866 179.734C196.787 179.546 198.721 179.358 200.668 179.17C201.635 179.082 202.614 178.982 203.594 178.882C204.058 178.832 204.624 178.806 205.013 178.719C205.427 178.619 205.817 178.381 206.118 178.067C206.432 177.742 206.633 177.378 206.834 176.915L207.437 175.562C207.839 174.66 208.24 173.77 208.63 172.881C209.421 171.102 210.212 169.335 210.991 167.569C212.561 164.061 214.105 160.591 215.612 157.196C218.651 150.393 221.578 143.828 224.366 137.577C225.76 134.457 227.129 131.4 228.447 128.444C229.113 126.965 229.766 125.499 230.406 124.071C230.733 123.357 231.047 122.643 231.361 121.929L231.825 120.889C231.951 120.576 231.976 120.238 231.901 119.912C231.763 119.26 231.26 118.722 230.582 118.809C229.829 118.835 229.088 118.86 228.359 118.885C226.89 118.935 225.446 118.972 224.027 119.022C221.201 119.11 218.476 119.198 215.889 119.286C205.54 119.599 197.151 119.849 191.324 120.025C189.88 120.062 188.586 120.1 187.469 120.125C186.916 120.137 186.401 120.15 185.924 120.162C185.447 120.162 185.045 120.175 184.693 120.325C183.99 120.601 183.601 121.064 183.374 121.365C183.148 121.703 183.073 121.891 183.06 121.891Z" fill="#263238"/>
<path d="M187.669 120.363C187.82 120.451 181.78 134.595 174.169 151.934C166.559 169.285 160.267 183.266 160.103 183.166C159.953 183.079 165.993 168.934 173.604 151.595C181.214 134.257 187.506 120.275 187.669 120.363Z" fill="#263238"/>
<path d="M200.649 152.448C202.003 149.665 201.982 146.868 200.603 146.201C199.224 145.533 197.009 147.248 195.655 150.03C194.301 152.813 194.322 155.61 195.701 156.278C197.08 156.945 199.296 155.231 200.649 152.448Z" fill="white"/>
<path d="M51.6351 133.693C51.6476 133.693 51.6728 133.831 51.723 134.094C51.7732 134.394 51.8486 134.783 51.9239 135.296C52.0997 136.386 52.3509 137.94 52.6774 139.957C53.3179 144.066 54.2347 150.004 55.3901 157.471L55.2268 157.308C64.8467 159.213 77.1541 161.643 91.2825 164.437L91.0188 164.512C91.4457 164.124 91.9858 163.773 92.6137 163.685C93.2416 163.61 93.8696 163.748 94.4221 163.986C95.5524 164.474 96.4817 165.276 97.3106 166.191L97.386 166.266V166.379C97.2855 172.618 97.185 179.232 97.0845 186.085V186.048C97.1348 187.238 96.8334 188.378 96.2557 189.418C95.6654 190.445 94.7863 191.322 93.7314 191.898C92.7142 192.512 91.4206 192.876 90.1773 192.637C88.934 192.399 87.8414 191.773 86.9372 190.871L87.1884 190.971C83.132 191.021 78.8369 191.021 74.4791 190.959C66.6049 190.846 58.919 190.558 51.5095 189.894C47.8173 189.543 44.1627 189.155 40.6714 188.228C37.2053 187.301 33.8773 185.785 31.3404 183.404C30.0594 182.214 29.0673 180.798 28.251 179.333C27.4473 177.842 26.9324 176.263 26.5054 174.685C25.7142 171.515 25.5384 168.358 25.2118 165.364C24.609 159.35 24.0439 153.738 23.529 148.614C22.5243 138.378 21.7959 130.072 21.3815 124.334C21.168 121.465 21.0424 119.235 20.967 117.719C20.9419 116.98 20.9168 116.417 20.8917 116.003C20.8791 115.615 20.8917 115.414 20.8917 115.414C20.8917 115.414 20.9294 115.615 20.9545 116.003C20.9922 116.417 21.0298 116.993 21.0926 117.719C21.2182 119.26 21.4066 121.478 21.6326 124.322C22.1224 130.047 22.9262 138.341 23.9811 148.576C24.5211 153.7 25.1114 159.3 25.7393 165.314C26.0784 168.32 26.2668 171.452 27.0454 174.547C27.4724 176.075 27.9873 177.616 28.7534 179.057C29.5445 180.473 30.5116 181.838 31.7297 182.978C34.1787 185.258 37.4062 186.724 40.8096 187.639C44.2255 188.541 47.8549 188.929 51.5472 189.267C58.9316 189.919 66.6049 190.195 74.4666 190.32C78.8118 190.382 83.1069 190.395 87.1507 190.345H87.2889L87.4019 190.458C88.168 191.234 89.2103 191.823 90.2778 192.024C91.3578 192.224 92.4379 191.936 93.3923 191.372C94.3594 190.833 95.138 190.044 95.678 189.13C96.1929 188.215 96.4692 187.125 96.4315 186.123V186.085C96.5571 179.232 96.6701 172.618 96.7831 166.379L96.8585 166.579C96.105 165.74 95.1882 164.95 94.1961 164.537C93.7063 164.324 93.1788 164.224 92.689 164.274C92.1993 164.349 91.7848 164.612 91.4206 164.938L91.3076 165.026L91.1695 165.001C77.0536 162.144 64.7588 159.651 55.1515 157.697L55.0133 157.672L54.9882 157.534C53.9082 150.054 53.0542 144.104 52.4639 139.994C52.1877 137.977 51.9742 136.411 51.8235 135.321C51.7607 134.808 51.7104 134.407 51.6728 134.119C51.6351 133.843 51.6225 133.693 51.6351 133.693Z" fill="#263238"/>
</svg>
