<svg width="166" height="79" viewBox="0 0 166 79" fill="none" xmlns="http://www.w3.org/2000/svg">
<path d="M6.95691 19.77H16.3169V24.18H6.95691V28.59H17.9969V33H1.55691V11.55H17.8169V15.96H6.95691V19.77ZM20.4848 17.64H25.5848L28.0448 22.08H28.1048L30.5648 17.64H35.6648L30.9848 25.17L36.2648 33H30.8648L28.1048 28.26H28.0448L25.2848 33H19.8848L25.1648 25.17L20.4848 17.64ZM47.6819 17.16C51.7619 17.16 54.3719 20.28 54.3719 25.32C54.3719 30.36 51.7619 33.48 47.6819 33.48C45.4619 33.48 43.8419 32.28 43.2419 31.47H43.1819V38.31H38.3819V17.64H43.1819V19.17H43.2419C43.8419 18.36 45.4619 17.16 47.6819 17.16ZM46.4219 29.88C48.3719 29.88 49.5719 28.32 49.5719 25.32C49.5719 22.32 48.3719 20.76 46.4219 20.76C44.4719 20.76 43.2719 22.32 43.2719 25.32C43.2719 28.32 44.4719 29.88 46.4219 29.88ZM64.2958 29.88C65.9458 29.88 66.7258 29.1 67.0258 28.35H71.7958C70.9558 31.44 68.5558 33.48 64.3858 33.48C59.2858 33.48 56.1958 30.12 56.1958 25.32C56.1958 20.64 59.2258 17.16 64.1158 17.16C69.3658 17.16 72.0358 21 72.0358 26.58H60.9958C60.9958 28.74 62.5858 29.88 64.2958 29.88ZM64.1158 20.46C62.2858 20.46 60.9958 21.54 60.9958 23.67H67.2358C67.2358 21.54 65.9458 20.46 64.1158 20.46ZM84.3229 17.16C87.2929 17.16 89.3029 19.11 89.3029 22.62V33H84.5029V24.15C84.5029 21.84 83.6929 21.06 82.1029 21.06C80.2729 21.06 79.2229 21.99 79.2229 24.12V33H74.4229V17.64H79.2229V19.86H79.2829C80.0929 18.45 81.5929 17.16 84.3229 17.16ZM99.7823 23.31C102.812 23.97 105.812 24.99 105.812 28.47C105.812 31.71 103.352 33.48 99.0923 33.48C93.6023 33.48 91.5023 31.02 91.3523 27.9H95.8523C96.0023 29.43 97.0223 30.18 98.9123 30.18C100.262 30.18 101.012 29.73 101.012 28.86C101.012 27.54 99.5723 27.36 97.1423 26.82C94.5323 26.25 91.6523 25.29 91.6523 22.08C91.6523 19.29 94.0523 17.16 98.3723 17.16C103.292 17.16 105.212 19.65 105.362 22.35H100.862C100.712 21.12 100.052 20.46 98.4923 20.46C97.1423 20.46 96.4523 20.94 96.4523 21.69C96.4523 22.77 97.4123 22.8 99.7823 23.31ZM115.706 29.88C117.356 29.88 118.136 29.1 118.436 28.35H123.206C122.366 31.44 119.966 33.48 115.796 33.48C110.696 33.48 107.606 30.12 107.606 25.32C107.606 20.64 110.636 17.16 115.526 17.16C120.776 17.16 123.446 21 123.446 26.58H112.406C112.406 28.74 113.996 29.88 115.706 29.88ZM115.526 20.46C113.696 20.46 112.406 21.54 112.406 23.67H118.646C118.646 21.54 117.356 20.46 115.526 20.46Z" fill="black"/>
<mask id="path-2-outside-1_5788_72" maskUnits="userSpaceOnUse" x="-1" y="37" width="136" height="30" fill="black">
<rect fill="white" x="-1" y="37" width="136" height="30"/>
<path d="M8.57793 65V43.984H0.88193V38.545H22.8969V43.984H15.2379V65H8.57793ZM33.9136 45.723C34.4316 45.723 34.8756 45.723 35.5416 45.871V51.051H35.4676C32.4336 50.496 29.2146 52.161 29.2146 56.194V65H23.2946V46.056H29.2146V49.164H29.2886C30.2136 47.055 31.8416 45.723 33.9136 45.723ZM48.8406 51.31C48.8406 50.2 48.0636 49.534 46.4356 49.534C44.2896 49.534 43.2536 50.348 43.0686 52.161H37.5186C37.7036 48.535 40.2936 45.464 46.4726 45.464C51.8006 45.464 54.7606 47.536 54.7606 53.493V62.188C54.7606 63.187 55.1306 63.594 55.8706 63.594V65C54.6866 65.444 53.6136 65.592 52.4296 65.592C49.7656 65.592 49.0256 64.334 49.0256 63.002H48.9516C47.7306 64.408 45.5106 65.592 42.9946 65.592C38.9986 65.592 36.7786 63.335 36.7786 60.153C36.7786 56.379 39.5536 54.64 43.9936 53.752C46.4356 53.271 48.8406 52.901 48.8406 51.31ZM45.0666 61.522C47.6196 61.522 48.8406 59.894 48.8406 58.081V55.787C48.1006 56.083 47.1756 56.342 45.8066 56.638C43.4756 57.156 42.6986 58.118 42.6986 59.302C42.6986 60.856 43.6236 61.522 45.0666 61.522ZM71.1148 53.123C70.9298 51.606 70.1158 49.904 67.7478 49.904C65.3058 49.904 63.9368 51.976 63.9368 55.528C63.9368 59.08 65.2688 61.152 67.7478 61.152C70.1158 61.152 70.9298 59.561 71.1148 57.859H76.9238C76.6278 62.336 73.2238 65.592 67.7848 65.592C61.7908 65.592 58.0168 61.448 58.0168 55.528C58.0168 49.645 61.7908 45.464 67.6368 45.464C73.1498 45.464 76.4428 48.72 76.9238 53.123H71.1148ZM79.5993 38.545H85.5193V52.457L91.0693 46.056H98.1363L91.4393 53.16L98.9133 65H91.8833L87.4062 57.452L85.5193 59.413V65H79.5993V38.545ZM108.711 61.152C110.746 61.152 111.708 60.19 112.078 59.265H117.961C116.925 63.076 113.965 65.592 108.822 65.592C102.532 65.592 98.7209 61.448 98.7209 55.528C98.7209 49.756 102.458 45.464 108.489 45.464C114.964 45.464 118.257 50.2 118.257 57.082H104.641C104.641 59.746 106.602 61.152 108.711 61.152ZM108.489 49.534C106.232 49.534 104.641 50.866 104.641 53.493H112.337C112.337 50.866 110.746 49.534 108.489 49.534ZM131.645 45.723C132.163 45.723 132.607 45.723 133.273 45.871V51.051H133.199C130.165 50.496 126.946 52.161 126.946 56.194V65H121.026V46.056H126.946V49.164H127.02C127.945 47.055 129.573 45.723 131.645 45.723Z"/>
</mask>
<path d="M8.57793 65H7.57793V66H8.57793V65ZM8.57793 43.984H9.57793V42.984H8.57793V43.984ZM0.88193 43.984H-0.11807V44.984H0.88193V43.984ZM0.88193 38.545V37.545H-0.11807V38.545H0.88193ZM22.8969 38.545H23.8969V37.545H22.8969V38.545ZM22.8969 43.984V44.984H23.8969V43.984H22.8969ZM15.2379 43.984V42.984H14.2379V43.984H15.2379ZM15.2379 65V66H16.2379V65H15.2379ZM9.57793 65V43.984H7.57793V65H9.57793ZM8.57793 42.984H0.88193V44.984H8.57793V42.984ZM1.88193 43.984V38.545H-0.11807V43.984H1.88193ZM0.88193 39.545H22.8969V37.545H0.88193V39.545ZM21.8969 38.545V43.984H23.8969V38.545H21.8969ZM22.8969 42.984H15.2379V44.984H22.8969V42.984ZM14.2379 43.984V65H16.2379V43.984H14.2379ZM15.2379 64H8.57793V66H15.2379V64ZM35.5416 45.871H36.5416V45.0688L35.7585 44.8948L35.5416 45.871ZM35.5416 51.051V52.051H36.5416V51.051H35.5416ZM35.4676 51.051L35.2876 52.0347L35.3769 52.051H35.4676V51.051ZM29.2146 65V66H30.2146V65H29.2146ZM23.2946 65H22.2946V66H23.2946V65ZM23.2946 46.056V45.056H22.2946V46.056H23.2946ZM29.2146 46.056H30.2146V45.056H29.2146V46.056ZM29.2146 49.164H28.2146V50.164H29.2146V49.164ZM29.2886 49.164V50.164H29.9419L30.2044 49.5657L29.2886 49.164ZM33.9136 46.723C34.4184 46.723 34.771 46.7242 35.3246 46.8472L35.7585 44.8948C34.9801 44.7218 34.4447 44.723 33.9136 44.723V46.723ZM34.5416 45.871V51.051H36.5416V45.871H34.5416ZM35.5416 50.051H35.4676V52.051H35.5416V50.051ZM35.6475 50.0673C33.9073 49.749 32.0582 50.056 30.6197 51.09C29.1513 52.1454 28.2146 53.885 28.2146 56.194H30.2146C30.2146 54.47 30.8873 53.3606 31.7869 52.714C32.7164 52.046 33.9939 51.798 35.2876 52.0347L35.6475 50.0673ZM28.2146 56.194V65H30.2146V56.194H28.2146ZM29.2146 64H23.2946V66H29.2146V64ZM24.2946 65V46.056H22.2946V65H24.2946ZM23.2946 47.056H29.2146V45.056H23.2946V47.056ZM28.2146 46.056V49.164H30.2146V46.056H28.2146ZM29.2146 50.164H29.2886V48.164H29.2146V50.164ZM30.2044 49.5657C31.0193 47.7075 32.3485 46.723 33.9136 46.723V44.723C31.3346 44.723 29.4078 46.4025 28.3728 48.7623L30.2044 49.5657ZM43.0686 52.161V53.161H43.9718L44.0635 52.2625L43.0686 52.161ZM37.5186 52.161L36.5199 52.11L36.4663 53.161H37.5186V52.161ZM55.8706 63.594H56.8706V62.594H55.8706V63.594ZM55.8706 65L56.2218 65.9363L56.8706 65.693V65H55.8706ZM49.0256 63.002H50.0256V62.002H49.0256V63.002ZM48.9516 63.002V62.002H48.4956L48.1966 62.3463L48.9516 63.002ZM43.9936 53.752L43.8004 52.7708L43.7975 52.7714L43.9936 53.752ZM48.8406 55.787H49.8406V54.31L48.4692 54.8585L48.8406 55.787ZM45.8066 56.638L45.5953 55.6606L45.5897 55.6618L45.8066 56.638ZM49.8406 51.31C49.8406 50.4988 49.5421 49.7379 48.8575 49.2124C48.216 48.7202 47.3631 48.534 46.4356 48.534V50.534C47.1361 50.534 47.4858 50.6808 47.6398 50.7991C47.7506 50.8841 47.8406 51.0112 47.8406 51.31H49.8406ZM46.4356 48.534C45.2599 48.534 44.203 48.7529 43.401 49.3797C42.5697 50.0294 42.184 50.9793 42.0738 52.0595L44.0635 52.2625C44.1382 51.5297 44.3631 51.1661 44.6325 50.9555C44.9312 50.7221 45.4653 50.534 46.4356 50.534V48.534ZM43.0686 51.161H37.5186V53.161H43.0686V51.161ZM38.5173 52.212C38.5981 50.6295 39.1942 49.2312 40.3938 48.2161C41.6046 47.1917 43.5417 46.464 46.4726 46.464V44.464C43.2246 44.464 40.7772 45.2718 39.1019 46.6894C37.4155 48.1163 36.6242 50.0665 36.5199 52.11L38.5173 52.212ZM46.4726 46.464C49.0387 46.464 50.8107 46.9687 51.9465 47.9886C53.0594 48.9881 53.7606 50.6657 53.7606 53.493H55.7606C55.7606 50.3633 54.9819 48.0264 53.2828 46.5006C51.6066 44.9953 49.2346 44.464 46.4726 44.464V46.464ZM53.7606 53.493V62.188H55.7606V53.493H53.7606ZM53.7606 62.188C53.7606 62.7765 53.8631 63.4076 54.2635 63.898C54.7015 64.4346 55.3169 64.594 55.8706 64.594V62.594C55.7736 62.594 55.7408 62.5802 55.7463 62.5824C55.7607 62.5879 55.7903 62.6057 55.8128 62.6332C55.8307 62.6552 55.8166 62.65 55.7981 62.5785C55.7789 62.5043 55.7606 62.3803 55.7606 62.188H53.7606ZM54.8706 63.594V65H56.8706V63.594H54.8706ZM55.5195 64.0637C54.4682 64.4579 53.5177 64.592 52.4296 64.592V66.592C53.7096 66.592 54.905 66.4301 56.2218 65.9363L55.5195 64.0637ZM52.4296 64.592C51.2387 64.592 50.6741 64.3098 50.4091 64.0637C50.1566 63.8293 50.0256 63.4872 50.0256 63.002H48.0256C48.0256 63.8488 48.2647 64.8017 49.0482 65.5293C49.8191 66.2452 50.9565 66.592 52.4296 66.592V64.592ZM49.0256 62.002H48.9516V64.002H49.0256V62.002ZM48.1966 62.3463C47.1611 63.5387 45.2143 64.592 42.9946 64.592V66.592C45.8069 66.592 48.3001 65.2773 49.7067 63.6577L48.1966 62.3463ZM42.9946 64.592C41.1817 64.592 39.8898 64.0821 39.0621 63.327C38.2425 62.5793 37.7786 61.502 37.7786 60.153H35.7786C35.7786 61.986 36.4247 63.6282 37.7142 64.8045C38.9954 65.9734 40.8116 66.592 42.9946 66.592V64.592ZM37.7786 60.153C37.7786 58.5551 38.3459 57.4659 39.3528 56.6455C40.4137 55.781 42.0274 55.165 44.1898 54.7326L43.7975 52.7714C41.5198 53.227 39.526 53.9245 38.0895 55.095C36.5989 56.3096 35.7786 57.9769 35.7786 60.153H37.7786ZM44.1869 54.7331C45.3547 54.5031 46.6832 54.2717 47.6944 53.8796C48.6794 53.4977 49.8406 52.7701 49.8406 51.31H47.8406C47.8406 51.4409 47.7994 51.6938 46.9714 52.0149C46.1696 52.3258 45.0746 52.5199 43.8004 52.7709L44.1869 54.7331ZM45.0666 62.522C46.5639 62.522 47.7804 62.0387 48.6233 61.1833C49.4584 60.3358 49.8406 59.21 49.8406 58.081H47.8406C47.8406 58.765 47.6123 59.3597 47.1987 59.7795C46.7929 60.1913 46.1223 60.522 45.0666 60.522V62.522ZM49.8406 58.081V55.787H47.8406V58.081H49.8406ZM48.4692 54.8585C47.8061 55.1238 46.9445 55.3689 45.5953 55.6606L46.018 57.6154C47.4068 57.3151 48.3951 57.0422 49.212 56.7155L48.4692 54.8585ZM45.5897 55.6618C44.3387 55.9398 43.3657 56.3643 42.6962 56.9892C41.9886 57.6496 41.6986 58.4604 41.6986 59.302H43.6986C43.6986 58.9596 43.7971 58.6974 44.0608 58.4513C44.3626 58.1697 44.9435 57.8542 46.0236 57.6142L45.5897 55.6618ZM41.6986 59.302C41.6986 60.2822 41.9976 61.1466 42.6824 61.7468C43.3434 62.3261 44.2097 62.522 45.0666 62.522V60.522C44.4806 60.522 44.1629 60.3849 44.0006 60.2427C43.8622 60.1214 43.6986 59.8758 43.6986 59.302H41.6986ZM71.1148 53.123L70.1222 53.2441L70.2293 54.123H71.1148V53.123ZM71.1148 57.859V56.859H70.2176L70.1207 57.7509L71.1148 57.859ZM76.9238 57.859L77.9216 57.925L77.9921 56.859H76.9238V57.859ZM76.9238 53.123V54.123H78.039L77.9179 53.0144L76.9238 53.123ZM72.1075 53.0019C72.0014 52.1325 71.7065 51.1146 71.012 50.2971C70.2854 49.442 69.203 48.904 67.7478 48.904V50.904C68.6606 50.904 69.1692 51.217 69.4878 51.5921C69.8386 52.0049 70.0432 52.5965 70.1222 53.2441L72.1075 53.0019ZM67.7478 48.904C66.1975 48.904 64.9322 49.5847 64.097 50.8256C63.2959 52.0158 62.9368 53.646 62.9368 55.528H64.9368C64.9368 53.858 65.2622 52.6762 65.7561 51.9424C66.2159 51.2593 66.8561 50.904 67.7478 50.904V48.904ZM62.9368 55.528C62.9368 57.405 63.2848 59.0358 64.0812 60.2276C64.9142 61.4741 66.1826 62.152 67.7478 62.152V60.152C66.834 60.152 66.1969 59.7939 65.7441 59.1164C65.2548 58.3842 64.9368 57.203 64.9368 55.528H62.9368ZM67.7478 62.152C69.181 62.152 70.2707 61.6572 71.0096 60.7941C71.7151 59.9699 72.0053 58.9207 72.1089 57.9671L70.1207 57.7509C70.0393 58.4993 69.83 59.0966 69.4903 59.4934C69.1839 59.8513 68.6826 60.152 67.7478 60.152V62.152ZM71.1148 58.859H76.9238V56.859H71.1148V58.859ZM75.926 57.793C75.7942 59.7871 74.9777 61.4662 73.624 62.6522C72.2671 63.8409 70.3029 64.592 67.7848 64.592V66.592C70.7057 66.592 73.163 65.7151 74.9419 64.1565C76.7239 62.5953 77.7575 60.4079 77.9216 57.925L75.926 57.793ZM67.7848 64.592C65.0278 64.592 62.859 63.645 61.3769 62.0901C59.8895 60.5295 59.0168 58.2749 59.0168 55.528H57.0168C57.0168 58.7011 58.0311 61.4785 59.9292 63.4699C61.8326 65.467 64.5478 66.592 67.7848 66.592V64.592ZM59.0168 55.528C59.0168 52.8007 59.8891 50.5426 61.3631 48.9749C62.8311 47.4136 64.9635 46.464 67.6368 46.464V44.464C64.4641 44.464 61.7865 45.6049 59.906 47.6049C58.0315 49.5984 57.0168 52.3723 57.0168 55.528H59.0168ZM67.6368 46.464C70.1926 46.464 72.1495 47.2155 73.512 48.3977C74.8745 49.5799 75.7136 51.2536 75.9297 53.2316L77.9179 53.0144C77.653 50.5894 76.6052 48.4336 74.8227 46.8871C73.0401 45.3405 70.594 44.464 67.6368 44.464V46.464ZM76.9238 52.123H71.1148V54.123H76.9238V52.123ZM79.5993 38.545V37.545H78.5993V38.545H79.5993ZM85.5192 38.545H86.5192V37.545H85.5192V38.545ZM85.5192 52.457H84.5192V55.1368L86.2748 53.1121L85.5192 52.457ZM91.0693 46.056V45.056H90.6128L90.3137 45.4009L91.0693 46.056ZM98.1363 46.056L98.8639 46.742L100.453 45.056H98.1363V46.056ZM91.4393 53.16L90.7116 52.474L90.1798 53.0382L90.5936 53.6938L91.4393 53.16ZM98.9133 65V66H100.727L99.7589 64.4662L98.9133 65ZM91.8832 65L91.0232 65.5101L91.3137 66H91.8832V65ZM87.4062 57.452L88.2663 56.9419L87.5963 55.8123L86.6857 56.7586L87.4062 57.452ZM85.5192 59.413L84.7987 58.7196L84.5192 59.01V59.413H85.5192ZM85.5192 65V66H86.5192V65H85.5192ZM79.5993 65H78.5993V66H79.5993V65ZM79.5993 39.545H85.5192V37.545H79.5993V39.545ZM84.5192 38.545V52.457H86.5192V38.545H84.5192ZM86.2748 53.1121L91.8248 46.7111L90.3137 45.4009L84.7637 51.8019L86.2748 53.1121ZM91.0693 47.056H98.1363V45.056H91.0693V47.056ZM97.4086 45.37L90.7116 52.474L92.1669 53.846L98.8639 46.742L97.4086 45.37ZM90.5936 53.6938L98.0676 65.5338L99.7589 64.4662L92.2849 52.6262L90.5936 53.6938ZM98.9133 64H91.8832V66H98.9133V64ZM92.7433 64.4899L88.2663 56.9419L86.5462 57.9621L91.0232 65.5101L92.7433 64.4899ZM86.6857 56.7586L84.7987 58.7196L86.2398 60.1064L88.1268 58.1454L86.6857 56.7586ZM84.5192 59.413V65H86.5192V59.413H84.5192ZM85.5192 64H79.5993V66H85.5192V64ZM80.5993 65V38.545H78.5993V65H80.5993ZM112.078 59.265V58.265H111.401L111.149 58.8936L112.078 59.265ZM117.961 59.265L118.926 59.5273L119.269 58.265H117.961V59.265ZM118.257 57.082V58.082H119.257V57.082H118.257ZM104.641 57.082V56.082H103.641V57.082H104.641ZM104.641 53.493H103.641V54.493H104.641V53.493ZM112.337 53.493V54.493H113.337V53.493H112.337ZM108.711 62.152C109.889 62.152 110.838 61.8717 111.569 61.3907C112.299 60.9103 112.754 60.2673 113.006 59.6364L111.149 58.8936C111.032 59.1877 110.821 59.4882 110.469 59.72C110.118 59.9513 109.567 60.152 108.711 60.152V62.152ZM112.078 60.265H117.961V58.265H112.078V60.265ZM116.996 59.0027C116.528 60.7237 115.644 62.0985 114.341 63.0503C113.036 64.0047 111.23 64.592 108.822 64.592V66.592C111.557 66.592 113.803 65.9213 115.522 64.665C117.244 63.406 118.358 61.6173 118.926 59.5273L116.996 59.0027ZM108.822 64.592C105.903 64.592 103.65 63.6359 102.127 62.0804C100.601 60.5213 99.7209 58.2717 99.7209 55.528H97.7209C97.7209 58.7043 98.7467 61.4867 100.698 63.4796C102.653 65.4761 105.451 66.592 108.822 66.592V64.592ZM99.7209 55.528C99.7209 52.8575 100.583 50.599 102.072 49.0167C103.553 47.4417 105.723 46.464 108.489 46.464V44.464C105.224 44.464 102.51 45.6323 100.615 47.6463C98.7272 49.653 97.7209 52.4265 97.7209 55.528H99.7209ZM108.489 46.464C111.458 46.464 113.598 47.5363 115.02 49.3163C116.467 51.128 117.257 53.785 117.257 57.082H119.257C119.257 53.497 118.401 50.345 116.582 48.0682C114.739 45.7597 111.995 44.464 108.489 44.464V46.464ZM118.257 56.082H104.641V58.082H118.257V56.082ZM103.641 57.082C103.641 58.6777 104.237 59.9704 105.213 60.8563C106.173 61.7286 107.44 62.152 108.711 62.152V60.152C107.872 60.152 107.104 59.8724 106.557 59.3756C106.025 58.8926 105.641 58.1503 105.641 57.082H103.641ZM108.489 48.534C107.167 48.534 105.931 48.9268 105.021 49.8116C104.106 50.7019 103.641 51.9741 103.641 53.493H105.641C105.641 52.3849 105.971 51.6776 106.416 51.2452C106.866 50.8072 107.554 50.534 108.489 50.534V48.534ZM104.641 54.493H112.337V52.493H104.641V54.493ZM113.337 53.493C113.337 51.9741 112.872 50.7019 111.957 49.8116C111.047 48.9268 109.811 48.534 108.489 48.534V50.534C109.424 50.534 110.112 50.8072 110.562 51.2452C111.006 51.6776 111.337 52.3849 111.337 53.493H113.337ZM133.273 45.871H134.273V45.0688L133.49 44.8948L133.273 45.871ZM133.273 51.051V52.051H134.273V51.051H133.273ZM133.199 51.051L133.019 52.0347L133.108 52.051H133.199V51.051ZM126.946 65V66H127.946V65H126.946ZM121.026 65H120.026V66H121.026V65ZM121.026 46.056V45.056H120.026V46.056H121.026ZM126.946 46.056H127.946V45.056H126.946V46.056ZM126.946 49.164H125.946V50.164H126.946V49.164ZM127.02 49.164V50.164H127.673L127.936 49.5657L127.02 49.164ZM131.645 46.723C132.15 46.723 132.502 46.7242 133.056 46.8472L133.49 44.8948C132.712 44.7218 132.176 44.723 131.645 44.723V46.723ZM132.273 45.871V51.051H134.273V45.871H132.273ZM133.273 50.051H133.199V52.051H133.273V50.051ZM133.379 50.0673C131.639 49.749 129.79 50.056 128.351 51.09C126.883 52.1454 125.946 53.885 125.946 56.194H127.946C127.946 54.47 128.619 53.3606 129.518 52.714C130.448 52.046 131.725 51.798 133.019 52.0347L133.379 50.0673ZM125.946 56.194V65H127.946V56.194H125.946ZM126.946 64H121.026V66H126.946V64ZM122.026 65V46.056H120.026V65H122.026ZM121.026 47.056H126.946V45.056H121.026V47.056ZM125.946 46.056V49.164H127.946V46.056H125.946ZM126.946 50.164H127.02V48.164H126.946V50.164ZM127.936 49.5657C128.751 47.7075 130.08 46.723 131.645 46.723V44.723C129.066 44.723 127.139 46.4025 126.104 48.7623L127.936 49.5657Z" fill="black" mask="url(#path-2-outside-1_5788_72)"/>
<circle cx="139" cy="9" r="5" fill="#6E7191"/>
<circle cx="156" cy="10" r="10" fill="#FF764A"/>
<circle cx="2" cy="2" r="2" transform="matrix(-1 0 0 1 153 23)" fill="#14142B"/>
</svg>
